<?xml version="1.0" encoding="UTF-8"?>
<svg version="1.1" xmlns="http://www.w3.org/2000/svg" width="427" height="395">
<path d="M0 0 C140.91 0 281.82 0 427 0 C427 130.35 427 260.7 427 395 C286.09 395 145.18 395 0 395 C0 264.65 0 134.3 0 0 Z " fill="#2E2B2C" transform="translate(0,0)"/>
<path d="M0 0 C140.91 0 281.82 0 427 0 C427 130.35 427 260.7 427 395 C286.09 395 145.18 395 0 395 C0 264.65 0 134.3 0 0 Z M246.25 26.625 C242.47566049 28.36968699 238.81018914 29.72022076 234.8125 30.875 C229.4913508 32.4694907 224.4043425 34.3991492 219.27050781 36.51391602 C213.60270674 38.81885011 207.84971439 40.82928485 202.0625 42.8125 C194.1141425 45.53813623 186.22838663 48.38691411 178.375 51.375 C169.28899629 54.82867376 160.13725155 58.05357554 150.9375 61.1875 C142.13922007 64.18590878 133.42455507 67.25875219 124.84765625 70.84375 C121.94643448 72.02174951 118.97057124 73.00980959 116 74 C115.67 87.86 115.34 101.72 115 116 C110.05 117.65 105.1 119.3 100 121 C97.0948971 122.04505386 94.20071522 123.09926733 91.3125 124.1875 C78.59006949 128.92599054 65.78947334 133.44644967 53 138 C48.38 139.65 43.76 141.3 39 143 C39 176.66 39 210.32 39 245 C54.00668316 251.10261473 54.00668316 251.10261473 69.078125 256.08203125 C73.07750965 257.33852242 76.86301732 258.99352724 80.7109375 260.6484375 C85.84814067 262.75944973 91.08982261 264.55588598 96.3359375 266.375 C102.57006131 268.54702304 108.78293517 270.7796197 115 273 C115.33 287.52 115.66 302.04 116 317 C132.6195032 323.27689391 149.20925693 329.53525129 166.01953125 335.28125 C173.49074877 337.83997736 180.89461831 340.58444077 188.2980957 343.33178711 C198.3079948 347.04309171 208.35187368 350.65712458 218.41894531 354.21044922 C224.10333564 356.22202735 229.75837554 358.27381311 235.3671875 360.48828125 C236.35356201 360.87056885 237.33993652 361.25285645 238.35620117 361.64672852 C240.18181903 362.35811655 242.00046528 363.08779574 243.80981445 363.83959961 C249.94785756 366.2058632 253.82393794 366.13580718 260 364 C261.60524536 363.44940918 261.60524536 363.44940918 263.24291992 362.88769531 C267.01134646 361.54987706 270.75699303 360.15675957 274.5 358.75 C276.53417836 357.99302454 278.56914034 357.23818395 280.60417175 356.48350525 C281.93580206 355.98957355 283.26719558 355.49500298 284.5983429 354.99977112 C289.2774183 353.26040202 293.97153467 351.573701 298.6875 349.9375 C305.99570044 347.39207415 313.24676182 344.69755485 320.5 342 C328.57223968 338.99795942 336.65036459 336.02685681 344.78125 333.1875 C351.39331528 330.8752257 357.97277196 328.47517228 364.55004883 326.06591797 C373.01060017 322.97433127 381.50348871 319.99876869 390 317 C390 283.34 390 249.68 390 215 C382.46990882 212.10381108 374.99483846 209.24122959 367.375 206.625 C357.53373527 203.21525533 347.76084089 199.63271115 338 196 C340.74260384 193.25739616 343.96482797 192.46633872 347.5625 191.25 C349.11461635 190.7136372 350.66669875 190.17717616 352.21875 189.640625 C353.41177734 189.23166992 353.41177734 189.23166992 354.62890625 188.81445312 C358.27961966 187.56046013 361.92140901 186.28160913 365.5625 185 C366.80128906 184.566875 368.04007812 184.13375 369.31640625 183.6875 C376.23628689 181.19426528 383.11298431 178.58263088 390 176 C390 142.34 390 108.68 390 74 C384.39 72.02 378.78 70.04 373 68 C366.5 65.5 366.5 65.5 363.31640625 64.26171875 C358.2854233 62.34769344 353.20425509 60.58121901 348.125 58.80078125 C319.93335005 48.91428488 319.93335005 48.91428488 306.5 43.8125 C299.92421337 41.31944352 293.30061657 38.98601186 286.6550293 36.68603516 C282.35833123 35.19386777 278.07864967 33.66900014 273.8203125 32.0703125 C272.97960205 31.75505615 272.1388916 31.4397998 271.27270508 31.11499023 C269.68980426 30.51824118 268.10874183 29.91658058 266.5300293 29.30883789 C256.46134304 25.11511579 256.46134304 25.11511579 246.25 26.625 Z " fill="#FEFEFE" transform="translate(0,0)"/>
<path d="M0 0 C1.18722656 0.51175781 2.37445313 1.02351562 3.59765625 1.55078125 C8.6502035 3.67222732 13.69345742 5.60521283 18.91015625 7.30078125 C25.71968747 9.51549679 32.43137671 11.94913702 39.13964844 14.45288086 C39.90051758 14.73655518 40.66138672 15.02022949 41.4453125 15.3125 C42.1144165 15.56346436 42.78352051 15.81442871 43.47290039 16.07299805 C46.18455358 17.05275264 48.92488956 17.95152569 51.66015625 18.86328125 C51.66015625 49.55328125 51.66015625 80.24328125 51.66015625 111.86328125 C44.11803488 115.00583182 36.64938489 118.04943386 28.97265625 120.80078125 C28.02350342 121.14359131 27.07435059 121.48640137 26.09643555 121.83959961 C19.71199451 124.14087431 13.31449198 126.40416028 6.90991211 128.64868164 C0.97285018 130.73573815 -4.92527733 132.92252811 -10.82397461 135.11523438 C-17.21484928 137.47796446 -23.64650507 139.71075189 -30.08984375 141.92578125 C-36.45037259 144.11390744 -42.74393872 146.36663432 -48.96484375 148.92578125 C-54.99558131 151.37323304 -61.07217299 153.64875714 -67.21484375 155.80078125 C-68.08318848 156.11990479 -68.9515332 156.43902832 -69.84619141 156.76782227 C-79.35149995 160.02337678 -86.46223007 158.19327344 -95.58984375 154.61328125 C-96.83580322 154.13967163 -96.83580322 154.13967163 -98.10693359 153.65649414 C-100.52214742 152.73600074 -102.93170096 151.80209285 -105.33984375 150.86328125 C-107.54808382 150.00887351 -109.75640449 149.15467401 -111.96484375 148.30078125 C-112.98320312 147.90632812 -114.0015625 147.511875 -115.05078125 147.10546875 C-122.42296758 144.32119886 -129.87952159 141.76457135 -137.32128906 139.17333984 C-147.79117505 135.5255448 -158.19060253 131.70398475 -168.58154297 127.8371582 C-177.31244031 124.59583847 -186.06752499 121.42777494 -194.83984375 118.30078125 C-196.04487549 117.87120117 -197.24990723 117.44162109 -198.49145508 116.99902344 C-204.40199107 114.89161221 -204.40199107 114.89161221 -210.33984375 112.86328125 C-210.33984375 100.65328125 -210.33984375 88.44328125 -210.33984375 75.86328125 C-202.47221439 76.9872283 -202.47221439 76.9872283 -198.58984375 78.53515625 C-197.74123779 78.86749268 -196.89263184 79.1998291 -196.01831055 79.54223633 C-195.1344165 79.89568115 -194.25052246 80.24912598 -193.33984375 80.61328125 C-185.76786917 83.57444408 -178.1847618 86.33233611 -170.44921875 88.83203125 C-167.84410102 89.69604015 -165.31865104 90.64397227 -162.77734375 91.67578125 C-157.10216141 93.63629879 -152.97594782 93.01053305 -147.4453125 90.88671875 C-145.77795044 90.25612549 -145.77795044 90.25612549 -144.0769043 89.61279297 C-142.90554932 89.1592041 -141.73419434 88.70561523 -140.52734375 88.23828125 C-138.07979357 87.31023081 -135.63187755 86.3831446 -133.18359375 85.45703125 C-132.00152344 85.00714844 -130.81945312 84.55726563 -129.6015625 84.09375 C-125.59646459 82.5828448 -121.57076298 81.142721 -117.52734375 79.73828125 C-104.63571421 75.23486516 -91.80166646 70.56435042 -79.02734375 65.73828125 C-71.55145095 62.9156148 -64.02353871 60.25172476 -56.48095703 57.61328125 C-52.9315506 56.36997719 -49.38593982 55.11599596 -45.83984375 53.86328125 C-37.33984375 50.86328125 -28.83984375 47.86328125 -20.33984375 44.86328125 C-20.00984375 31.00328125 -19.67984375 17.14328125 -19.33984375 2.86328125 C-6.58154991 -2.24003629 -6.58154991 -2.24003629 0 0 Z " fill="#FDFDFD" transform="translate(332.33984375,200.13671875)"/>
<path d="M0 0 C1.69488552 0.64955271 3.39020697 1.29796898 5.0859375 1.9453125 C5.9325293 2.27176758 6.77912109 2.59822266 7.65136719 2.93457031 C11.28583279 4.31632727 14.95246194 5.59869094 18.625 6.875 C25.45121158 9.26345416 32.23866119 11.74829313 39.01928711 14.26293945 C44.39052735 16.24998468 49.78099459 18.17371973 55.1875 20.0625 C60.4004196 21.88404645 65.56589627 23.7741467 70.65625 25.91796875 C72.87095896 26.7765189 75.08845774 27.53787323 77.34375 28.28125 C81.97935126 29.81010329 86.55247412 31.48064237 91.125 33.1875 C98.37324887 35.88086205 105.64480003 38.49424041 112.95703125 41.0090332 C118.01802072 42.76802072 118.01802072 42.76802072 119.125 43.875 C119.22023905 46.76643151 119.25053027 49.63392064 119.23852539 52.52563477 C119.23867142 53.43286285 119.23881744 54.34009094 119.2389679 55.27481079 C119.23826841 58.28869985 119.23047434 61.30252793 119.22265625 64.31640625 C119.2207922 66.40005967 119.21936824 68.48371354 119.21836853 70.56736755 C119.21454234 76.06323446 119.2047112 81.55907513 119.19366455 87.05493164 C119.1834526 92.65836227 119.17887137 98.26179713 119.17382812 103.86523438 C119.16308902 114.86850114 119.14601139 125.87174839 119.125 136.875 C117.39080811 137.48335693 117.39080811 137.48335693 115.62158203 138.10400391 C114.08364083 138.6448055 112.54571866 139.18566124 111.0078125 139.7265625 C109.86856323 140.12597046 109.86856323 140.12597046 108.70629883 140.53344727 C104.44088614 142.03496451 100.20696977 143.58973448 96 145.25 C89.7919573 147.66073739 83.52978682 149.90831502 77.25 152.125 C76.26241699 152.47868652 75.27483398 152.83237305 74.25732422 153.19677734 C63.31754736 157.02672131 60.04851624 157.21082409 48.125 152.875 C48.125 138.025 48.125 123.175 48.125 107.875 C45.155 107.38 45.155 107.38 42.125 106.875 C40.40895192 106.31760052 38.70866445 105.70942096 37.02734375 105.0546875 C36.07142334 104.68770752 35.11550293 104.32072754 34.13061523 103.94262695 C33.11813721 103.54906006 32.10565918 103.15549316 31.0625 102.75 C23.1164591 99.70883289 15.15389164 96.818007 7.0625 94.1875 C-0.07763341 91.86108101 -6.99368211 89.26905211 -13.9375 86.40625 C-19.56213785 84.15639486 -25.34743374 82.36252072 -31.10400391 80.48486328 C-36.3989442 78.74299258 -41.59700442 76.87461337 -46.75 74.75 C-52.70663336 72.30144898 -58.70783141 70.20682992 -64.84375 68.25390625 C-67.84450651 67.26843737 -70.74365161 66.12347501 -73.65625 64.90234375 C-84.79753684 59.97748666 -84.79753684 59.97748666 -96.4453125 61.7265625 C-97.24710938 62.10554688 -98.04890625 62.48453125 -98.875 62.875 C-100.4964693 63.44759807 -102.12171133 64.00959201 -103.75 64.5625 C-105.79447634 65.32585006 -107.83556088 66.09829228 -109.875 66.875 C-110.6685791 67.17631836 -111.4621582 67.47763672 -112.27978516 67.78808594 C-116.81741341 69.5111102 -121.3530987 71.23911402 -125.88671875 72.97265625 C-126.72895996 73.29250488 -127.57120117 73.61235352 -128.43896484 73.94189453 C-130.0165701 74.5461847 -131.59016453 75.1610964 -133.15869141 75.78857422 C-136.66483218 77.17140328 -139.05000962 77.875 -142.875 77.875 C-142.875 66.325 -142.875 54.775 -142.875 42.875 C-138.915 41.51375 -138.915 41.51375 -134.875 40.125 C-123.94044502 36.33058851 -113.11661519 32.24736019 -102.296875 28.13964844 C-95.54664964 25.58315655 -88.77877339 23.14203719 -81.91748047 20.89624023 C-76.61095926 19.11505116 -71.36885489 17.15750307 -66.11968994 15.2149353 C-62.81441719 13.99194158 -59.50693283 12.77496659 -56.19921875 11.55859375 C-55.55569458 11.32189468 -54.91217041 11.08519562 -54.24914551 10.84132385 C-48.69846205 8.80314583 -43.1302217 6.81951577 -37.54272461 4.88476562 C-34.18321845 3.71534184 -30.85544649 2.48864139 -27.546875 1.18359375 C-26.82677246 0.90233643 -26.10666992 0.6210791 -25.36474609 0.33129883 C-24.00939551 -0.20148445 -22.65772507 -0.74378579 -21.31103516 -1.2980957 C-13.3291152 -4.42745493 -7.60562355 -3.02218512 0 0 Z " fill="#FDFDFD" transform="translate(264.875,35.125)"/>
<path d="M0 0 C1.30228934 0.50578603 2.60502741 1.01041815 3.90820312 1.51391602 C6.45268778 2.49836291 8.99518248 3.48764037 11.53564453 4.48242188 C24.29590095 9.48128935 24.29590095 9.48128935 37.3125 13.75 C46.96782405 16.6224589 56.40622653 20.3752531 65.62890625 24.421875 C68.57564575 25.66041014 71.43065534 26.62487391 74.5 27.5 C80.85288397 29.40808389 87.07943711 31.6074467 93.3125 33.875 C94.2516626 34.2155542 95.1908252 34.5561084 96.15844727 34.90698242 C101.16898387 36.74145582 106.02067518 38.70528936 110.9375 40.8125 C110.9375 53.0225 110.9375 65.2325 110.9375 77.8125 C107.60458014 77.14591603 104.98021241 76.56121544 101.890625 75.39453125 C101.13644287 75.11262939 100.38226074 74.83072754 99.60522461 74.5402832 C98.80737549 74.23823975 98.00952637 73.93619629 97.1875 73.625 C95.48606505 72.98854522 93.78423339 72.35315006 92.08203125 71.71875 C91.22432129 71.3990625 90.36661133 71.079375 89.48291016 70.75 C84.92415427 69.07096465 80.33492275 67.47938666 75.74584961 65.88549805 C71.1147976 64.26498824 66.5877028 62.48882521 62.11328125 60.4765625 C56.84390094 58.86831357 52.47542979 60.08119332 47.45703125 61.97265625 C46.85100067 62.19789978 46.24497009 62.42314331 45.62057495 62.6552124 C43.66020831 63.38613932 41.70523884 64.13047824 39.75 64.875 C38.3913945 65.38402547 37.03242339 65.89207615 35.6730957 66.39916992 C32.98366653 67.40385318 30.29613363 68.4133422 27.61035156 69.42773438 C22.95664213 71.18231028 18.29297052 72.90879763 13.625 74.625 C12.88838135 74.89594482 12.1517627 75.16688965 11.39282227 75.44604492 C9.95990246 75.97240724 8.52672243 76.49806176 7.09326172 77.02294922 C5.59957086 77.57001561 4.10644397 78.11862339 2.61376953 78.66845703 C0.30759553 79.51543797 -2.0018922 80.35270139 -4.3125 81.1875 C-4.99223877 81.43862549 -5.67197754 81.68975098 -6.37231445 81.94848633 C-15.18287007 85.10163362 -20.26451078 84.87867582 -28.75 81.5 C-30.68953358 80.76022107 -32.62966988 80.02202096 -34.5703125 79.28515625 C-35.60704102 78.88699707 -36.64376953 78.48883789 -37.71191406 78.07861328 C-43.81600107 75.77201206 -49.97401098 73.61508509 -56.125 71.4375 C-58.49130896 70.59754642 -60.8572215 69.75647483 -63.22265625 68.9140625 C-64.22949463 68.55650879 -65.23633301 68.19895508 -66.27368164 67.83056641 C-68.88922166 66.87575577 -71.47727792 65.84658883 -74.0625 64.8125 C-74.0625 47.6525 -74.0625 30.4925 -74.0625 12.8125 C-52.18544408 4.06167763 -52.18544408 4.06167763 -45.2578125 1.890625 C-42.60434678 0.99532361 -40.02899352 0.02159306 -37.4296875 -1.015625 C-36.59703369 -1.34167725 -35.76437988 -1.66772949 -34.90649414 -2.00366211 C-33.26395451 -2.65012794 -31.62720306 -3.31157566 -29.99780273 -3.99047852 C-19.04489172 -8.25487022 -10.47967598 -4.14767291 0 0 Z " fill="#FDFDFD" transform="translate(196.0625,107.1875)"/>
<path d="M0 0 C1.3561562 0.50782645 2.71268588 1.01465658 4.06958008 1.52050781 C6.07986166 2.27002748 8.08992993 3.02005217 10.09880066 3.77334595 C15.60151651 5.83625969 21.12939563 7.81451979 26.68505859 9.72949219 C30.33220716 10.99507597 33.93371181 12.34052808 37.5234375 13.76171875 C38.37268799 14.09204102 39.22193848 14.42236328 40.09692383 14.76269531 C41.72763522 15.39954677 43.35302886 16.05027119 44.97143555 16.71777344 C53.61945493 20.06781413 60.2699161 17.84998932 68.5625 14.625 C69.79709961 14.15743286 69.79709961 14.15743286 71.05664062 13.68041992 C72.74484804 13.04051913 74.43170976 12.39705647 76.1171875 11.75 C79.75786049 10.35421483 83.41038776 8.99050312 87.0625 7.625 C90.67485147 6.27131788 94.28685008 4.91687857 97.89453125 3.55078125 C98.87808594 3.18339844 99.86164063 2.81601563 100.875 2.4375 C101.71675781 2.12039062 102.55851563 1.80328125 103.42578125 1.4765625 C105.5625 0.8125 105.5625 0.8125 108.5625 0.8125 C108.5625 12.3625 108.5625 23.9125 108.5625 35.8125 C105.448125 37.00875 102.33375 38.205 99.125 39.4375 C98.18342041 39.80053223 97.24184082 40.16356445 96.27172852 40.53759766 C87.75926566 43.79293544 79.16332045 46.80100923 70.5625 49.8125 C65.47532124 51.59720993 60.38889912 53.38407134 55.30297852 55.17236328 C53.83871716 55.68676694 52.37419431 56.20042678 50.90942383 56.71337891 C43.48456068 59.3142525 36.08989856 61.94098284 28.80541992 64.91845703 C24.89704272 66.47636247 20.91660972 67.8230183 16.9375 69.1875 C10.59548745 71.38379348 4.27910211 73.62962181 -2 76 C-2.6504126 76.24355225 -3.3008252 76.48710449 -3.97094727 76.73803711 C-6.87101589 77.82718969 -9.75546479 78.94186803 -12.625 80.109375 C-13.57375 80.48578125 -14.5225 80.8621875 -15.5 81.25 C-16.29535156 81.57871094 -17.09070313 81.90742188 -17.91015625 82.24609375 C-24.5443719 83.73289633 -30.69972454 80.74316063 -36.75 78.3125 C-46.44129945 74.51131894 -56.2299618 71.05772406 -66.08129883 67.6953125 C-67.1411499 67.33308594 -68.20100098 66.97085938 -69.29296875 66.59765625 C-70.71065552 66.11631226 -70.71065552 66.11631226 -72.15698242 65.62524414 C-74.4375 64.8125 -74.4375 64.8125 -76.4375 63.8125 C-76.4375 47.3125 -76.4375 30.8125 -76.4375 13.8125 C-58.60497221 7.12530208 -58.60497221 7.12530208 -50.19555664 4.23022461 C-46.07760595 2.79401004 -42.01880646 1.25932579 -37.9765625 -0.37890625 C-37.04610107 -0.75096191 -36.11563965 -1.12301758 -35.15698242 -1.50634766 C-33.34631868 -2.23442675 -31.54135349 -2.97689643 -29.7434082 -3.73583984 C-18.81256964 -8.10310932 -10.44106973 -3.96663362 0 0 Z " fill="#FDFDFD" transform="translate(198.4375,205.1875)"/>
<path d="M0 0 C0 17.49 0 34.98 0 53 C1.98 53.495 1.98 53.495 4 54 C5.37122974 54.44478686 6.73694314 54.9068228 8.09765625 55.3828125 C8.88994629 55.65955811 9.68223633 55.93630371 10.49853516 56.22143555 C11.34464355 56.51961182 12.19075195 56.81778809 13.0625 57.125 C13.94212402 57.4341333 14.82174805 57.7432666 15.72802734 58.06176758 C28.23359843 62.473858 40.74417821 66.92753905 53 72 C49.19851161 75.43894862 44.70642464 76.66429396 39.9375 78.25 C38.13620637 78.86307997 36.33543754 79.4777037 34.53515625 80.09375 C33.61750488 80.40699219 32.69985352 80.72023438 31.75439453 81.04296875 C26.67730468 82.80703471 21.6479174 84.70125879 16.62084961 86.60253906 C11.11412645 88.66165471 5.66691537 90.29992539 0 92 C0 108.83 0 125.66 0 143 C-4.97715426 142.17047429 -8.37992777 141.17001957 -12.9375 139.25 C-19.20585115 136.66140314 -25.53283842 134.44643018 -31.984375 132.34765625 C-37.3468274 130.57761753 -42.62298023 128.57400586 -47.91259766 126.59936523 C-54.32212998 124.21885001 -60.78122594 122.0405861 -67.2890625 119.9453125 C-70 119 -70 119 -71 118 C-71.09523905 115.10856849 -71.12553027 112.24107936 -71.11352539 109.34936523 C-71.11367142 108.44213715 -71.11381744 107.53490906 -71.1139679 106.60018921 C-71.11326841 103.58630015 -71.10547434 100.57247207 -71.09765625 97.55859375 C-71.0957922 95.47494033 -71.09436824 93.39128646 -71.09336853 91.30763245 C-71.08954234 85.81176554 -71.0797112 80.31592487 -71.06866455 74.82006836 C-71.0584526 69.21663773 -71.05387137 63.61320287 -71.04882812 58.00976562 C-71.03808902 47.00649886 -71.02101139 36.00325161 -71 25 C-69.58033433 24.36147935 -68.15984308 23.7247941 -66.73901367 23.08886719 C-65.94806808 22.73411316 -65.1571225 22.37935913 -64.34220886 22.01385498 C-61.05258132 20.58989774 -57.70352654 19.40610816 -54.3125 18.25 C-52.82906398 17.73542057 -51.3460104 17.21973772 -49.86328125 16.703125 C-49.08033691 16.43048828 -48.29739258 16.15785156 -47.49072266 15.87695312 C-42.98021483 14.28885823 -38.49128024 12.64151676 -34 11 C-26.38511968 8.21918458 -18.75756385 5.4801336 -11.1015625 2.81445312 C-3.05110399 0 -3.05110399 0 0 0 Z " fill="#FCFCFC" transform="translate(116,123)"/>
<path d="M0 0 C8.24890462 3.15538512 16.52210724 6.19339911 24.875 9.0625 C31.94658187 11.49489618 38.97547207 14.00129489 45.96435547 16.66137695 C51.11319467 18.61205296 56.29901177 20.4434207 61.5 22.25 C76.50297088 27.46438523 91.42500446 32.90111947 106.26953125 38.55078125 C110.43936129 40.08227896 114.66077753 41.47025918 118.875 42.875 C118.875 76.535 118.875 110.195 118.875 144.875 C98.01350174 152.98780488 98.01350174 152.98780488 89.5625 155.75 C88.68400391 156.04390625 87.80550781 156.3378125 86.90039062 156.640625 C82.91850551 157.95685086 79.02772118 159.20713969 74.875 159.875 C74.1875 158.0625 74.1875 158.0625 73.875 155.875 C76.3811951 152.18009576 80.71447551 151.32569879 84.75 150 C86.28573691 149.47957493 87.82088835 148.9574192 89.35546875 148.43359375 C90.11778809 148.17433105 90.88010742 147.91506836 91.66552734 147.64794922 C95.84435124 146.18605348 99.94000825 144.51708709 104.04296875 142.85546875 C106.875 141.875 106.875 141.875 112.875 140.875 C112.38 94.84 112.38 94.84 111.875 47.875 C100.985 43.915 100.985 43.915 89.875 39.875 C81.75 36.8125 81.75 36.8125 77.91796875 35.3671875 C72.47653613 33.34001365 66.98618532 31.45227766 61.50073242 29.54833984 C55.83005917 27.57475759 50.18959502 25.53184167 44.5625 23.4375 C37.40821618 20.77545843 30.21605773 18.23950485 23 15.75 C14.88736775 12.95006498 6.87176223 9.99007862 -1.125 6.875 C-3.57786984 5.92329702 -6.03638559 4.98603294 -8.5 4.0625 C-10.15128906 3.43408203 -10.15128906 3.43408203 -11.8359375 2.79296875 C-20.10573357 0.48489027 -26.1245035 3.0531904 -33.8125 6.0625 C-35.60901652 6.74652153 -37.40556247 7.43046927 -39.20304871 8.11193848 C-40.48429726 8.59790693 -41.76505888 9.08516083 -43.04536438 9.5736084 C-50.89087982 12.56260572 -58.78886862 15.40507385 -66.6875 18.25 C-68.21013349 18.79977757 -69.73275715 19.34958238 -71.25537109 19.89941406 C-78.97709086 22.68417055 -86.70804217 25.44103306 -94.453125 28.16015625 C-95.21233749 28.42691162 -95.97154999 28.69366699 -96.75376892 28.96850586 C-100.34981828 30.23127947 -103.94716745 31.49009397 -107.54711914 32.74169922 C-115.10170705 35.37997689 -122.54338486 38.19124525 -129.93041992 41.26977539 C-136.24990294 43.68817949 -142.70580304 45.73526768 -149.125 47.875 C-149.125 60.085 -149.125 72.295 -149.125 84.875 C-148.465 85.205 -147.805 85.535 -147.125 85.875 C-147.125 86.865 -147.125 87.855 -147.125 88.875 C-147.785 88.875 -148.445 88.875 -149.125 88.875 C-149.125 106.035 -149.125 123.195 -149.125 140.875 C-147.475 141.205 -145.825 141.535 -144.125 141.875 C-141.85951936 142.62121282 -139.60958768 143.41582134 -137.375 144.25 C-135.65023437 144.88035156 -135.65023437 144.88035156 -133.890625 145.5234375 C-132.52164063 146.19246094 -132.52164063 146.19246094 -131.125 146.875 C-130.795 147.865 -130.465 148.855 -130.125 149.875 C-130.785 149.875 -131.445 149.875 -132.125 149.875 C-132.125 150.535 -132.125 151.195 -132.125 151.875 C-140.125 150.875 -140.125 150.875 -155.125 144.875 C-155.125 127.385 -155.125 109.895 -155.125 91.875 C-168.00233055 96.07913558 -168.00233055 96.07913558 -180.5 100.83203125 C-183.86502234 102.16902673 -187.27087645 103.36339654 -190.6875 104.5625 C-202.19031514 108.59991194 -213.65483565 112.74574084 -225.125 116.875 C-225.125 147.565 -225.125 178.255 -225.125 209.875 C-217.7 212.35 -217.7 212.35 -210.125 214.875 C-205.34079408 216.51325136 -200.57298414 218.17197605 -195.8125 219.875 C-194.60916016 220.2875 -193.40582031 220.7 -192.16601562 221.125 C-191.02197266 221.5375 -189.87792969 221.95 -188.69921875 222.375 C-187.16140747 222.91640625 -187.16140747 222.91640625 -185.5925293 223.46875 C-182.56354822 225.19497252 -182.04146394 226.57861417 -181.125 229.875 C-181.455 230.205 -181.785 230.535 -182.125 230.875 C-187.21840649 230.41254695 -191.79107729 229.13369186 -196.5625 227.375 C-197.26898682 227.12016846 -197.97547363 226.86533691 -198.70336914 226.6027832 C-201.1811437 225.70380961 -203.65347915 224.79102765 -206.125 223.875 C-207.14722656 223.49649902 -208.16945313 223.11799805 -209.22265625 222.72802734 C-214.57852023 220.74032514 -219.93050663 218.74233097 -225.27734375 216.73046875 C-226.6075354 216.23003052 -226.6075354 216.23003052 -227.96459961 215.71948242 C-230.125 214.875 -230.125 214.875 -232.125 213.875 C-232.125 180.215 -232.125 146.555 -232.125 111.875 C-226.515 109.895 -220.905 107.915 -215.125 105.875 C-211.95448396 104.71690732 -208.78729789 103.55465683 -205.625 102.375 C-198.96088614 99.90397501 -192.27661592 97.5017132 -185.56762695 95.15551758 C-179.1378493 92.89901818 -172.74831016 90.536857 -166.3671875 88.14648438 C-165.23216797 87.72399414 -165.23216797 87.72399414 -164.07421875 87.29296875 C-163.40737061 87.04313232 -162.74052246 86.7932959 -162.0534668 86.53588867 C-160.11206431 85.87056692 -158.11596705 85.37274176 -156.125 84.875 C-155.795 71.015 -155.465 57.155 -155.125 42.875 C-138.82385404 36.63999947 -138.82385404 36.63999947 -133.484375 34.62109375 C-132.26459961 34.15888428 -131.04482422 33.6966748 -129.78808594 33.22045898 C-124.87849463 31.41715602 -119.92839293 29.76986335 -114.94921875 28.16796875 C-109.78208582 26.46350798 -104.71173871 24.49060931 -99.625 22.5625 C-91.60210369 19.52161432 -83.55315861 16.59639174 -75.4375 13.8125 C-67.05591901 10.93705666 -58.76939758 7.86869631 -50.50439453 4.67480469 C-44.13379696 2.22523238 -37.72292686 -0.00641676 -31.22265625 -2.0859375 C-28.6385333 -2.95274293 -26.23026625 -3.9461375 -23.75 -5.0625 C-15.80614765 -7.39087052 -7.40341489 -2.88160877 0 0 Z " fill="#2C292A" transform="translate(271.125,31.125)"/>
<path d="M0 0 C1.29345337 0.47046753 1.29345337 0.47046753 2.61303711 0.95043945 C5.30910102 1.93414839 7.99831282 2.9351666 10.6875 3.9375 C12.40062311 4.56624578 14.1141557 5.19387714 15.828125 5.8203125 C19.03288036 6.99353519 22.23458675 8.17447714 25.43359375 9.36328125 C29.89217147 11.0187576 34.36798463 12.62444072 38.8515625 14.2109375 C40.6875 14.9375 40.6875 14.9375 41.6875 15.9375 C41.72842937 18.27047433 41.72991723 20.60455225 41.6875 22.9375 C32.75531795 26.7701916 23.70057261 30.19753668 14.5625 33.5 C12.61147114 34.2065744 10.66076946 34.91401481 8.71075439 35.62338257 C6.84410413 36.30207482 4.97626309 36.97748916 3.10839844 37.65283203 C0.06851276 38.79441627 -2.89134847 40.04341107 -5.8671875 41.33984375 C-13.21626455 44.27284631 -19.21466189 41.02111973 -26.25 38.375 C-34.21834266 35.4219747 -42.21171125 32.56930659 -50.25 29.8125 C-59.05405687 26.78202125 -67.7184427 23.52175139 -76.3125 19.9375 C-72.82386729 16.89727767 -68.94293962 15.5683892 -64.625 14.125 C-63.0950082 13.59908597 -61.56506157 13.07304055 -60.03515625 12.546875 C-58.86170654 12.14758789 -58.86170654 12.14758789 -57.66455078 11.74023438 C-53.95587991 10.47449742 -50.25848756 9.17723507 -46.5625 7.875 C-45.85851074 7.62733887 -45.15452148 7.37967773 -44.42919922 7.12451172 C-37.23077165 4.57866504 -30.04346774 1.94896588 -23.015625 -1.0390625 C-14.57815107 -4.53832494 -8.17482847 -3.08369409 0 0 Z " fill="#FBFBFB" transform="translate(265.3125,176.0625)"/>
<path d="M0 0 C-0.10546875 1.828125 -0.10546875 1.828125 -1 4 C-3.80078125 5.484375 -3.80078125 5.484375 -7.3125 6.75 C-9.03919922 7.39195312 -9.03919922 7.39195312 -10.80078125 8.046875 C-14 9 -14 9 -18 9 C-18 24.84 -18 40.68 -18 57 C-18.99 57.495 -18.99 57.495 -20 58 C-20.99 57.67 -21.98 57.34 -23 57 C-23 39.84 -23 22.68 -23 5 C-4.14058355 -2.54376658 -4.14058355 -2.54376658 0 0 Z " fill="#252122" transform="translate(139,210)"/>
<path d="M0 0 C0.33 0 0.66 0 1 0 C1 11.22 1 22.44 1 34 C5.62 32.35 10.24 30.7 15 29 C15.66 29 16.32 29 17 29 C18 32 18 32 18 35 C15.8765984 35.83739781 13.7512272 36.66980283 11.625 37.5 C10.44164062 37.9640625 9.25828125 38.428125 8.0390625 38.90625 C5 40 5 40 3 40 C3 39.34 3 38.68 3 38 C2.01 37.67 1.02 37.34 0 37 C0 24.79 0 12.58 0 0 Z " fill="#3B3839" transform="translate(121,79)"/>
<path d="M0 0 C-0.474375 0.433125 -0.94875 0.86625 -1.4375 1.3125 C-3.23686957 3.02309613 -3.23686957 3.02309613 -4 6 C-3.34 6.33 -2.68 6.66 -2 7 C-3.74692795 7.67467562 -5.49768525 8.33944156 -7.25 9 C-8.71179688 9.556875 -8.71179688 9.556875 -10.203125 10.125 C-13 11 -13 11 -17 11 C-17.33 9.02 -17.66 7.04 -18 5 C-15.37831689 3.96983978 -12.75326119 2.95061606 -10.125 1.9375 C-9.37863281 1.64294922 -8.63226563 1.34839844 -7.86328125 1.04492188 C-2.2265625 -1.11328125 -2.2265625 -1.11328125 0 0 Z " fill="#363435" transform="translate(155,202)"/>
<path d="M0 0 C0.66 0 1.32 0 2 0 C2 0.66 2 1.32 2 2 C4.64 1.67 7.28 1.34 10 1 C10 1.66 10 2.32 10 3 C9.34 3 8.68 3 8 3 C7.34 4.65 6.68 6.3 6 8 C5.01 8 4.02 8 3 8 C3 8.66 3 9.32 3 10 C-1.455 10.495 -1.455 10.495 -6 11 C-5.67 9.35 -5.34 7.7 -5 6 C-3.68 5.67 -2.36 5.34 -1 5 C-0.67 3.35 -0.34 1.7 0 0 Z " fill="#221F20" transform="translate(309,195)"/>
<path d="M0 0 C10.55808656 3.07517084 10.55808656 3.07517084 15 5 C13.68 6.65 12.36 8.3 11 10 C5.94744036 9.36843005 1.70406799 7.86540627 -3 6 C-2.01 4.02 -1.02 2.04 0 0 Z " fill="#333031" transform="translate(51,243)"/>
<path d="M0 0 C-0.99 1.32 -1.98 2.64 -3 4 C-2.01 4.66 -1.02 5.32 0 6 C-2.12124966 6.86343824 -4.24713072 7.71550648 -6.375 8.5625 C-8.15003906 9.27599609 -8.15003906 9.27599609 -9.9609375 10.00390625 C-13 11 -13 11 -15 10 C-14.34 8.35 -13.68 6.7 -13 5 C-13.66 4.67 -14.32 4.34 -15 4 C-12.87875034 3.13656176 -10.75286928 2.28449352 -8.625 1.4375 C-6.84996094 0.72400391 -6.84996094 0.72400391 -5.0390625 -0.00390625 C-2 -1 -2 -1 0 0 Z " fill="#373536" transform="translate(306,242)"/>
<path d="M0 0 C-1.32 1.32 -2.64 2.64 -4 4 C-3.67 4.66 -3.34 5.32 -3 6 C-8 4.33333333 -13 2.66666667 -18 1 C-17.01 0.67 -16.02 0.34 -15 0 C-14.13375 -0.391875 -13.2675 -0.78375 -12.375 -1.1875 C-7.83876499 -2.27955658 -4.4101221 -1.27403527 0 0 Z " fill="#333031" transform="translate(377,210)"/>
<path d="M0 0 C3.3 0.99 6.6 1.98 10 3 C9.01 3.495 9.01 3.495 8 4 C8.33 4.99 8.66 5.98 9 7 C8.34 7 7.68 7 7 7 C7 7.66 7 8.32 7 9 C3.7 8.01 0.4 7.02 -3 6 C-2.01 5.67 -1.02 5.34 0 5 C0 3.68 0 2.36 0 1 C0 0.67 0 0.34 0 0 Z " fill="#353334" transform="translate(350,60)"/>
<path d="M0 0 C3.4375 1.3125 3.4375 1.3125 5.4375 4.3125 C4.7775 4.3125 4.1175 4.3125 3.4375 4.3125 C3.4375 4.9725 3.4375 5.6325 3.4375 6.3125 C-0.61856165 5.84449289 -4.02838679 5.43296792 -7.5625 3.3125 C-5.65294844 -0.50660312 -4.04332092 -0.78029 0 0 Z " fill="#252223" transform="translate(346.5625,58.6875)"/>
<path d="M0 0 C2.97 0.99 5.94 1.98 9 3 C8.67 3.66 8.34 4.32 8 5 C7.34 5 6.68 5 6 5 C5.67 5.99 5.34 6.98 5 8 C1.62537285 7.45276317 -0.08235 6.9451 -3 5 C-2.34 4.67 -1.68 4.34 -1 4 C-0.67 2.68 -0.34 1.36 0 0 Z " fill="#373435" transform="translate(146,321)"/>
<path d="M0 0 C1.3921875 0.3403125 1.3921875 0.3403125 2.8125 0.6875 C2.4825 2.0075 2.1525 3.3275 1.8125 4.6875 C2.4725 5.0175 3.1325 5.3475 3.8125 5.6875 C2.3324159 5.57387738 0.85339926 5.44627092 -0.625 5.3125 C-1.44871094 5.24289062 -2.27242187 5.17328125 -3.12109375 5.1015625 C-3.80300781 4.96492188 -4.48492187 4.82828125 -5.1875 4.6875 C-5.5175 4.0275 -5.8475 3.3675 -6.1875 2.6875 C-4.14987265 -0.14253799 -3.59070275 -0.35202968 0 0 Z " fill="#242223" transform="translate(157.1875,325.3125)"/>
<path d="M0 0 C0 1.32 0 2.64 0 4 C-1.65 4.33 -3.3 4.66 -5 5 C-5 4.34 -5 3.68 -5 3 C-5.99 3 -6.98 3 -8 3 C-8 2.01 -8 1.02 -8 0 C-4.71023192 -1.09658936 -3.28696233 -0.79953138 0 0 Z " fill="#242122" transform="translate(311,46)"/>
<path d="M0 0 C-0.33 0.66 -0.66 1.32 -1 2 C-1.66 2 -2.32 2 -3 2 C-3 2.66 -3 3.32 -3 4 C-5.9375 3.625 -5.9375 3.625 -9 3 C-9.33 2.34 -9.66 1.68 -10 1 C-9.67 0.34 -9.34 -0.32 -9 -1 C-3.609375 -2.40625 -3.609375 -2.40625 0 0 Z " fill="#262224" transform="translate(225,274)"/>
<path d="M0 0 C0.598125 0.226875 1.19625 0.45375 1.8125 0.6875 C1.1875 3.125 1.1875 3.125 -0.1875 5.6875 C-3.3125 6.5 -3.3125 6.5 -6.1875 6.6875 C-5.78066505 4.32785727 -5.28935661 2.82815912 -3.875 0.875 C-2.1875 -0.3125 -2.1875 -0.3125 0 0 Z " fill="#252223" transform="translate(157.1875,201.3125)"/>
<path d="M0 0 C-0.33 1.32 -0.66 2.64 -1 4 C-2.98 4.33 -4.96 4.66 -7 5 C-7.33 3.02 -7.66 1.04 -8 -1 C-4.59745511 -2.2151946 -3.06748874 -1.86240388 0 0 Z " fill="#2C292A" transform="translate(139,210)"/>
<path d="M0 0 C2.64 0.66 5.28 1.32 8 2 C6.67661368 2.68620031 5.34050052 3.34786461 4 4 C3.175 4.4125 2.35 4.825 1.5 5.25 C-1 6 -1 6 -3.3125 5.125 C-3.869375 4.75375 -4.42625 4.3825 -5 4 C-4.0409375 3.8453125 -4.0409375 3.8453125 -3.0625 3.6875 C-2.381875 3.460625 -1.70125 3.23375 -1 3 C-0.67 2.01 -0.34 1.02 0 0 Z " fill="#373435" transform="translate(349,201)"/>
<path d="M0 0 C1.98 0.66 3.96 1.32 6 2 C4.75 3.5625 4.75 3.5625 3 5 C0.8125 4.6875 0.8125 4.6875 -1 4 C-0.67 2.68 -0.34 1.36 0 0 Z M-6 4 C-3.6568787 4.25561323 -1.32156597 4.59270772 1 5 C1.33 5.66 1.66 6.32 2 7 C-0.64 6.34 -3.28 5.68 -6 5 C-6 4.67 -6 4.34 -6 4 Z " fill="#3A3839" transform="translate(160,326)"/>
<path d="M0 0 C-0.35049575 3.24208567 -0.56221181 4.61527704 -3.0625 6.8125 C-3.701875 7.204375 -4.34125 7.59625 -5 8 C-5.66 7.67 -6.32 7.34 -7 7 C-6.01 5.35 -5.02 3.7 -4 2 C-5.32 1.67 -6.64 1.34 -8 1 C-2.25 -1.125 -2.25 -1.125 0 0 Z " fill="#434142" transform="translate(305,201)"/>
<path d="M0 0 C-0.33 1.65 -0.66 3.3 -1 5 C-1.99 5.33 -2.98 5.66 -4 6 C-4.33 5.01 -4.66 4.02 -5 3 C-6.98 3 -8.96 3 -11 3 C-3.71428571 -1.85714286 -3.71428571 -1.85714286 0 0 Z " fill="#3F3D3E" transform="translate(228,35)"/>
<path d="M0 0 C1.32 0.33 2.64 0.66 4 1 C3.67 2.65 3.34 4.3 3 6 C1.68 6.33 0.36 6.66 -1 7 C-1.625 5.1875 -1.625 5.1875 -2 3 C-1.34 2.01 -0.68 1.02 0 0 Z " fill="#262324" transform="translate(243,28)"/>
<path d="M0 0 C1.32 0 2.64 0 4 0 C3.67 1.65 3.34 3.3 3 5 C1.0625 4.625 1.0625 4.625 -1 4 C-1.33 3.34 -1.66 2.68 -2 2 C-1.34 2 -0.68 2 0 2 C0 1.34 0 0.68 0 0 Z " fill="#232021" transform="translate(163,329)"/>
<path d="M0 0 C-0.33 1.32 -0.66 2.64 -1 4 C-3.64 3.34 -6.28 2.68 -9 2 C-3.42857143 -1.71428571 -3.42857143 -1.71428571 0 0 Z " fill="#393738" transform="translate(112,267)"/>
<path d="M0 0 C1.32 0 2.64 0 4 0 C3.67 1.65 3.34 3.3 3 5 C1.68 5 0.36 5 -1 5 C-0.67 3.35 -0.34 1.7 0 0 Z " fill="#262324" transform="translate(358,64)"/>
<path d="M0 0 C1.32 0 2.64 0 4 0 C3.67 1.65 3.34 3.3 3 5 C2.34 5 1.68 5 1 5 C0.67 3.35 0.34 1.7 0 0 Z " fill="#231F20" transform="translate(142,321)"/>
<path d="M0 0 C2.475 0.495 2.475 0.495 5 1 C4.34 2.32 3.68 3.64 3 5 C2.01 4.67 1.02 4.34 0 4 C0 2.68 0 1.36 0 0 Z " fill="#2B2728" transform="translate(123,313)"/>
</svg>
