<?xml version="1.0" encoding="UTF-8"?>
<svg version="1.1" xmlns="http://www.w3.org/2000/svg" width="512" height="512">
<path d="M0 0 C168.96 0 337.92 0 512 0 C512 168.96 512 337.92 512 512 C343.04 512 174.08 512 0 512 C0 343.04 0 174.08 0 0 Z " fill="#FEFEFE" transform="translate(0,0)"/>
<path d="M0 0 C0.11480713 0.6305127 0.22961426 1.26102539 0.34790039 1.91064453 C3.50474681 19.10597311 7.2359445 36.09793151 11.32324219 53.09106445 C11.93476042 55.71957805 12.48777882 58.35056958 13 61 C7.27725008 60.62677718 3.25030013 58.80800613 -1.765625 56.05859375 C-4.03977637 54.78592287 -4.03977637 54.78592287 -7 55 C-7.3403125 55.8971875 -7.680625 56.794375 -8.03125 57.71875 C-15.63241789 77.42142586 -25.59165281 95.90455816 -38 113 C-38.56203125 113.77730469 -39.1240625 114.55460937 -39.703125 115.35546875 C-44.95228603 122.35010323 -50.9720598 128.67918115 -57 135 C-57.47518066 135.49854492 -57.95036133 135.99708984 -58.43994141 136.51074219 C-77.40097832 156.26320786 -100.44693571 171.09644735 -124.95751953 182.99853516 C-127.05313611 184.02605359 -129.13513261 185.07740642 -131.21484375 186.13671875 C-139.31263834 190.25638446 -147.36191581 194.1206386 -156 197 C-156 234.95 -156 272.9 -156 312 C-158.31 312 -160.62 312 -163 312 C-163 275.37 -163 238.74 -163 201 C-165.64 201.99 -168.28 202.98 -171 204 C-171.33 239.64 -171.66 275.28 -172 312 C-173.98 312 -175.96 312 -178 312 C-178.495 299.625 -178.495 299.625 -179 287 C-183.95 287 -188.9 287 -194 287 C-194 295.25 -194 303.5 -194 312 C-196.31 312 -198.62 312 -201 312 C-201 303.75 -201 295.5 -201 287 C-207.93 286.67 -214.86 286.34 -222 286 C-222 294.58 -222 303.16 -222 312 C-223.98 312 -225.96 312 -228 312 C-228 303.42 -228 294.84 -228 286 C-233.61 286.33 -239.22 286.66 -245 287 C-245.33 295.25 -245.66 303.5 -246 312 C-247.98 312 -249.96 312 -252 312 C-252 284.94 -252 257.88 -252 230 C-259.26 231.98 -266.52 233.96 -274 236 C-277 236 -277 236 -278.6484375 234.4609375 C-279.50308594 233.42839844 -279.50308594 233.42839844 -280.375 232.375 C-280.98214844 231.64796875 -281.58929688 230.9209375 -282.21484375 230.171875 C-282.80394531 229.45515625 -283.39304687 228.7384375 -284 228 C-284.51691406 227.40703125 -285.03382813 226.8140625 -285.56640625 226.203125 C-289 222.25106838 -289 222.25106838 -289 220 C-276.74480035 216.14035648 -264.63304419 212.41305339 -252 210 C-252 203.4 -252 196.8 -252 190 C-244.08 190 -236.16 190 -228 190 C-228 181.09 -228 172.18 -228 163 C-214.635 163.495 -214.635 163.495 -201 164 C-201 154.43 -201 144.86 -201 135 C-193.41 135 -185.82 135 -178 135 C-178 114.54 -178 94.08 -178 73 C-175.69 73 -173.38 73 -171 73 C-170.97684849 86.23006189 -170.95907054 99.46011898 -170.94818783 112.69019699 C-170.94296517 118.83318547 -170.93587866 124.97616011 -170.92456055 131.11914062 C-170.91370983 137.04540391 -170.9077185 142.97165388 -170.90512276 148.89792633 C-170.90327246 151.1609849 -170.8996594 153.42404273 -170.89426994 155.68709564 C-170.88703059 158.85228564 -170.88601029 162.01742027 -170.88647461 165.18261719 C-170.88287933 166.12201141 -170.87928406 167.06140564 -170.87557983 168.02926636 C-170.8769545 168.89300873 -170.87832916 169.7567511 -170.87974548 170.64666748 C-170.87882369 171.39516338 -170.8779019 172.14365929 -170.87695217 172.91483688 C-171 175 -171 175 -172 179 C-169.36 178.01 -166.72 177.02 -164 176 C-163.67 162.14 -163.34 148.28 -163 134 C-161.02 134 -159.04 134 -157 134 C-155.2765118 135.7234882 -155.87184646 137.9228633 -155.86105347 140.22018433 C-155.86408981 141.3138884 -155.86408981 141.3138884 -155.8671875 142.4296875 C-155.86623077 143.17582306 -155.86527405 143.92195862 -155.86428833 144.69070435 C-155.86360645 146.27280766 -155.86546127 147.85491375 -155.86962891 149.43701172 C-155.87496213 151.85781164 -155.86969199 154.27842475 -155.86328125 156.69921875 C-155.86394233 158.23437541 -155.86522409 159.76953195 -155.8671875 161.3046875 C-155.86516327 162.02977509 -155.86313904 162.75486267 -155.86105347 163.50192261 C-155.87551092 166.60814984 -156.0099248 169.02977439 -157 172 C-123.49247722 155.85505632 -90.01814328 134.68369967 -68 104 C-67.43796875 103.24332031 -66.8759375 102.48664063 -66.296875 101.70703125 C-55.60402635 86.94415688 -37 60.8287967 -37 42 C-37.96421875 41.73445313 -38.9284375 41.46890625 -39.921875 41.1953125 C-41.18515625 40.84210938 -42.4484375 40.48890625 -43.75 40.125 C-45.00296875 39.77695313 -46.2559375 39.42890625 -47.546875 39.0703125 C-50.24953641 38.23260975 -52.5469357 37.37520272 -55 36 C-52.13049935 32.89474225 -49.31490226 30.85963755 -45.625 28.8125 C-33.12493238 21.66960422 -21.37704668 13.56016079 -9.64331055 5.23266602 C-8.20338745 4.21837524 -8.20338745 4.21837524 -6.734375 3.18359375 C-5.87038086 2.57056396 -5.00638672 1.95753418 -4.11621094 1.32592773 C-2 0 -2 0 0 0 Z " fill="#1299CC" transform="translate(391,84)"/>
<path d="M0 0 C0 3.3 0 6.6 0 10 C5.61 10 11.22 10 17 10 C17 9.01 17 8.02 17 7 C20 8 20 8 21 10 C21.039992 11.99960012 21.04346799 14.00047242 21 16 C20.01 16 19.02 16 18 16 C17.4225 15.34 16.845 14.68 16.25 14 C14.04328181 11.65581853 14.04328181 11.65581853 10.375 11.5625 C8.704375 11.7790625 8.704375 11.7790625 7 12 C6.34 12.99 5.68 13.98 5 15 C4.01 15.33 3.02 15.66 2 16 C6.95 16 11.9 16 17 16 C17 24.25 17 32.5 17 41 C18.32 41 19.64 41 21 41 C22.09828769 44.54188278 22.11445011 47.8209762 22.09765625 51.515625 C22.09282227 53.39121094 22.09282227 53.39121094 22.08789062 55.3046875 C22.07532227 57.25761719 22.07532227 57.25761719 22.0625 59.25 C22.05798828 60.56742187 22.05347656 61.88484375 22.04882812 63.2421875 C22.03704316 66.49483741 22.02059011 69.74739584 22 73 C17.52440608 73.9821159 13.25140612 74.11510853 8.6875 74.0625 C6.150625 74.041875 3.61375 74.02125 1 74 C1 82.25 1 90.5 1 99 C-1.31 99 -3.62 99 -6 99 C-6 90.75 -6 82.5 -6 74 C-8.97 73.01 -8.97 73.01 -12 72 C-11.01 70.515 -11.01 70.515 -10 69 C-15.61 68.67 -21.22 68.34 -27 68 C-27.495 56.615 -27.495 56.615 -28 45 C-29.485 45.495 -29.485 45.495 -31 46 C-31.495 45.505 -31.495 45.505 -32 45 C-32.33 52.26 -32.66 59.52 -33 67 C-38.94 67 -44.88 67 -51 67 C-51 59.74 -51 52.48 -51 45 C-43.625 44.125 -43.625 44.125 -41.30712891 43.86376953 C-37.21416544 43.41541038 -37.21416544 43.41541038 -34 41 C-39.28 40.67 -44.56 40.34 -50 40 C-50 39.67 -50 39.34 -50 39 C-44.39 39 -38.78 39 -33 39 C-33 31.41 -33 23.82 -33 16 C-38.28 16 -43.56 16 -49 16 C-48 14 -48 14 -44.5703125 12.67578125 C-37.1550936 10.31977242 -30.66540276 8.32075704 -22.84765625 9.6015625 C-19.15362773 10.11842246 -15.53667166 10.09605502 -11.8125 10.0625 C-10.51957031 10.05347656 -9.22664063 10.04445313 -7.89453125 10.03515625 C-6.46173828 10.01775391 -6.46173828 10.01775391 -5 10 C-5 7.03 -5 4.06 -5 1 C-2 0 -2 0 0 0 Z " fill="#143046" transform="translate(196,297)"/>
<path d="M0 0 C106.92 0 213.84 0 324 0 C324 2.64 324 5.28 324 8 C217.08 8 110.16 8 0 8 C0 5.36 0 2.72 0 0 Z " fill="#334B5E" transform="translate(87,405)"/>
<path d="M0 0 C2.31 0 4.62 0 7 0 C7.04632359 13.21277982 7.08186938 26.42554035 7.10362434 39.63838482 C7.11406518 45.77351943 7.12822999 51.90859852 7.15087891 58.04370117 C7.17259639 63.96348937 7.18456637 69.88322413 7.18975449 75.80304909 C7.19345219 78.06249648 7.20067279 80.32194092 7.21146011 82.58136559 C7.22596032 85.74400549 7.22797854 88.90642405 7.22705078 92.0690918 C7.23424133 93.00489075 7.24143188 93.9406897 7.24884033 94.90484619 C7.22130014 103.57077687 7.22130014 103.57077687 5 107 C3.35 107.66 1.7 108.32 0 109 C0 104.71 0 100.42 0 96 C-7.92 96.495 -7.92 96.495 -16 97 C-15.9212012 102.0856689 -15.9212012 102.0856689 -15.81982422 107.17089844 C-15.76480777 114.21655307 -15.76480777 114.21655307 -18 117 C-19.98 117.495 -19.98 117.495 -22 118 C-22.495 107.605 -22.495 107.605 -23 97 C-29.93 96.67 -36.86 96.34 -44 96 C-44 102.93 -44 109.86 -44 117 C-38.21111367 116.92104494 -38.21111367 116.92104494 -32.42260742 116.81982422 C-31.69920166 116.8148291 -30.9757959 116.80983398 -30.23046875 116.8046875 C-29.49207764 116.79421387 -28.75368652 116.78374023 -27.99291992 116.77294922 C-26 117 -26 117 -23 119 C-30.06075526 122.32270836 -36.2723068 122.31806054 -44 122 C-44.33 123.65 -44.66 125.3 -45 127 C-46.98 127.495 -46.98 127.495 -49 128 C-49.66 126.35 -50.32 124.7 -51 123 C-56.61 122.67 -62.22 122.34 -68 122 C-68 126.29 -68 130.58 -68 135 C-69.98 135.33 -71.96 135.66 -74 136 C-74 129.73 -74 123.46 -74 117 C-66.08 117 -58.16 117 -50 117 C-50 108.09 -50 99.18 -50 90 C-36.635 90.495 -36.635 90.495 -23 91 C-23 81.43 -23 71.86 -23 62 C-15.41 62 -7.82 62 0 62 C0 41.54 0 21.08 0 0 Z " fill="#152E43" transform="translate(213,157)"/>
<path d="M0 0 C5.61 0 11.22 0 17 0 C17 8.25 17 16.5 17 25 C18.32 25 19.64 25 21 25 C22.09828769 28.54188278 22.11445011 31.8209762 22.09765625 35.515625 C22.09443359 36.76601563 22.09121094 38.01640625 22.08789062 39.3046875 C22.07532227 41.25761719 22.07532227 41.25761719 22.0625 43.25 C22.05798828 44.56742187 22.05347656 45.88484375 22.04882812 47.2421875 C22.03704316 50.49483741 22.02059011 53.74739584 22 57 C17.52440608 57.9821159 13.25140612 58.11510853 8.6875 58.0625 C6.150625 58.041875 3.61375 58.02125 1 58 C1 66.25 1 74.5 1 83 C-1.31 83 -3.62 83 -6 83 C-6 74.75 -6 66.5 -6 58 C-7.98 57.34 -9.96 56.68 -12 56 C-11.34 55.01 -10.68 54.02 -10 53 C-15.61 52.67 -21.22 52.34 -27 52 C-27.33 44.41 -27.66 36.82 -28 29 C-20.41 29 -12.82 29 -5 29 C-5 36.26 -5 43.52 -5 51 C-3.35 51 -1.7 51 0 51 C-0.33 44.07 -0.66 37.14 -1 30 C-1.66 29.67 -2.32 29.34 -3 29 C-2.01 27.68 -1.02 26.36 0 25 C-0.66 24.34 -1.32 23.68 -2 23 C-1.67 22.67 -1.34 22.34 -1 22 C-0.84285346 20.36743242 -0.74914586 18.72864662 -0.68359375 17.08984375 C-0.64169922 16.10048828 -0.59980469 15.11113281 -0.55664062 14.09179688 C-0.51732422 13.05087891 -0.47800781 12.00996094 -0.4375 10.9375 C-0.39431641 9.89271484 -0.35113281 8.84792969 -0.30664062 7.77148438 C-0.20018895 5.18116028 -0.09955692 2.59059825 0 0 Z " fill="#16324A" transform="translate(196,313)"/>
<path d="M0 0 C-0.33 49.5 -0.66 99 -1 150 C-4.63 150 -8.26 150 -12 150 C-12.2316927 131.62387941 -12.41004636 113.2482615 -12.51812172 94.87099457 C-12.56964183 86.33764359 -12.63985245 77.8052179 -12.75439453 69.27246094 C-12.85420686 61.83343011 -12.9186142 54.39506944 -12.94088495 46.95538759 C-12.95390035 43.01730138 -12.98438186 39.08113192 -13.05730057 35.1436615 C-13.12545834 31.43302025 -13.1460646 27.72507421 -13.13107681 24.01386642 C-13.13511708 22.01118214 -13.18879577 20.00878824 -13.24420166 18.00686646 C-13.14554879 9.35338388 -13.14554879 9.35338388 -9.76774216 5.36274719 C-3.25408337 0 -3.25408337 0 0 0 Z " fill="#103049" transform="translate(324,246)"/>
<path d="M0 0 C-0.33 44.22 -0.66 88.44 -1 134 C-4.63 134 -8.26 134 -12 134 C-12.23167989 117.56233814 -12.41003836 101.12535138 -12.51812172 84.68645382 C-12.56964544 77.05317987 -12.63986107 69.4209401 -12.75439453 61.78833008 C-12.85419813 55.13414788 -12.91861164 48.48071464 -12.94088495 41.82580477 C-12.95390253 38.30292394 -12.98439175 34.78218524 -13.05730057 31.2599926 C-13.13811328 27.32388652 -13.13989125 23.38985842 -13.13525391 19.45288086 C-13.18918304 17.70931557 -13.18918304 17.70931557 -13.24420166 15.93052673 C-13.14554157 8.1921063 -13.14554157 8.1921063 -9.76774216 4.67700386 C-3.27671439 0 -3.27671439 0 0 0 Z " fill="#153049" transform="translate(301,262)"/>
<path d="M0 0 C0 39.93 0 79.86 0 121 C-3.96 121 -7.92 121 -12 121 C-12.23164552 106.1098683 -12.41002184 91.22000962 -12.51812172 76.32845879 C-12.56965314 69.41366049 -12.63988145 62.50000325 -12.75439453 55.5859375 C-12.86484683 48.91386356 -12.92283318 42.24321982 -12.94877243 35.57019424 C-12.96725762 33.02391009 -13.00335662 30.47769126 -13.05730057 27.93191147 C-13.12986349 24.36577746 -13.13989376 20.80454581 -13.13525391 17.23779297 C-13.17120667 16.18402969 -13.20715942 15.13026642 -13.24420166 14.04457092 C-13.20191712 11.0427869 -13.07389231 8.80705685 -12 6 C-8.71343321 3.01778603 -4.59178669 0 0 0 Z " fill="#15324A" transform="translate(278,275)"/>
<path d="M0 0 C0 36.3 0 72.6 0 110 C-3.96 110 -7.92 110 -12 110 C-12 75.35 -12 40.7 -12 5 C-2 0 -2 0 0 0 Z " fill="#10314B" transform="translate(255,286)"/>
<path d="M0 0 C0.33 7.59 0.66 15.18 1 23 C6.22011328 23.24959746 6.22011328 23.24959746 11.44116211 23.47802734 C13.2994481 23.58027587 15.15110827 23.78720681 17 24 C17.33 24.66 17.66 25.32 18 26 C12.01245503 29.99169665 7.58868884 29 0 29 C0 36.26 0 43.52 0 51 C5.94 51 11.88 51 18 51 C18 43.41 18 35.82 18 28 C19.65 28.33 21.3 28.66 23 29 C23.96088383 31.88265149 24.11670941 33.67662271 24.09765625 36.66796875 C24.09443359 37.56064453 24.09121094 38.45332031 24.08789062 39.37304688 C24.07951172 40.30181641 24.07113281 41.23058594 24.0625 42.1875 C24.05798828 43.12787109 24.05347656 44.06824219 24.04882812 45.03710938 C24.03704645 47.35810008 24.01911114 49.67905807 24 52 C29.94 52 35.88 52 42 52 C41.34 52.99 40.68 53.98 40 55 C40.99 55.66 41.98 56.32 43 57 C36.73 57 30.46 57 24 57 C24 65.58 24 74.16 24 83 C22.02 83 20.04 83 18 83 C18 74.42 18 65.84 18 57 C9.585 57.495 9.585 57.495 1 58 C0.67 66.25 0.34 74.5 0 83 C-1.98 83 -3.96 83 -6 83 C-6 55.94 -6 28.88 -6 1 C-3 0 -3 0 0 0 Z " fill="#153046" transform="translate(145,313)"/>
<path d="M0 0 C0.33 0 0.66 0 1 0 C1.33 7.26 1.66 14.52 2 22 C2.99 21.67 3.98 21.34 5 21 C5.495 22.98 5.495 22.98 6 25 C6 19.72 6 14.44 6 9 C6.33 9 6.66 9 7 9 C7 15.6 7 22.2 7 29 C12.28 29 17.56 29 23 29 C22.34 30.32 21.68 31.64 21 33 C17.7421875 33.828125 17.7421875 33.828125 13.875 34.25 C12.59367187 34.39953125 11.31234375 34.5490625 9.9921875 34.703125 C9.00476563 34.80109375 8.01734375 34.8990625 7 35 C7.02320313 36.10859375 7.04640625 37.2171875 7.0703125 38.359375 C7.08907577 39.82290992 7.10727537 41.28645214 7.125 42.75 C7.14175781 43.47960937 7.15851563 44.20921875 7.17578125 44.9609375 C7.24166808 52.20848881 7.24166808 52.20848881 5 55 C3.02 55.495 3.02 55.495 1 56 C0.505 45.605 0.505 45.605 0 35 C-6.93 34.67 -13.86 34.34 -21 34 C-21 40.93 -21 47.86 -21 55 C-15.21111367 54.92104494 -15.21111367 54.92104494 -9.42260742 54.81982422 C-8.69920166 54.8148291 -7.9757959 54.80983398 -7.23046875 54.8046875 C-6.49207764 54.79421387 -5.75368652 54.78374023 -4.99291992 54.77294922 C-3 55 -3 55 0 57 C-7.06075526 60.32270836 -13.2723068 60.31806054 -21 60 C-21.33 61.65 -21.66 63.3 -22 65 C-23.98 65.495 -23.98 65.495 -26 66 C-26.66 64.35 -27.32 62.7 -28 61 C-33.61 60.67 -39.22 60.34 -45 60 C-45 64.29 -45 68.58 -45 73 C-47.97 73.495 -47.97 73.495 -51 74 C-51 67.73 -51 61.46 -51 55 C-43.08 55 -35.16 55 -27 55 C-27 46.09 -27 37.18 -27 28 C-13.635 28.495 -13.635 28.495 0 29 C0 19.43 0 9.86 0 0 Z " fill="#193144" transform="translate(190,219)"/>
<path d="M0 0 C2 2 2 2 2.24609566 3.99524117 C2.24425207 4.81932409 2.24240849 5.64340702 2.24050903 6.49246216 C2.24325836 7.43759674 2.24600769 8.38273132 2.24884033 9.35650635 C2.24164978 10.39659851 2.23445923 11.43669067 2.22705078 12.50830078 C2.22734283 13.60099274 2.22763489 14.69368469 2.22793579 15.81948853 C2.22653825 19.44484292 2.21095699 23.06999385 2.1953125 26.6953125 C2.19158388 29.20352059 2.1887362 31.71173012 2.18673706 34.21994019 C2.17987119 40.15562286 2.16409528 46.09123984 2.14403808 52.02688873 C2.11951013 59.44629818 2.1087526 66.86571665 2.09765625 74.28515625 C2.07618515 87.52347486 2.04241739 100.76173279 2 114 C-0.31 114 -2.62 114 -5 114 C-5 77.04 -5 40.08 -5 2 C-3.35 1.34 -1.7 0.68 0 0 Z " fill="#274157" transform="translate(233,282)"/>
<path d="M0 0 C30.03 0 60.06 0 91 0 C91 1.98 91 3.96 91 6 C2.89 6 -85.22 6 -176 6 C-176 5.67 -176 5.34 -176 5 C-117.59 4.67 -59.18 4.34 1 4 C1.33 3.01 1.66 2.02 2 1 C1.01 0.505 1.01 0.505 0 0 Z " fill="#163044" transform="translate(320,406)"/>
<path d="M0 0 C0 35.64 0 71.28 0 108 C-1.98 108 -3.96 108 -6 108 C-6 99.42 -6 90.84 -6 82 C-4.68 82 -3.36 82 -2 82 C-1.95052302 78.06734104 -1.91424422 74.13480286 -1.89013672 70.2019043 C-1.87514505 68.20680382 -1.84973269 66.21179054 -1.82421875 64.21679688 C-1.81777344 62.96318359 -1.81132812 61.70957031 -1.8046875 60.41796875 C-1.79421387 59.26063232 -1.78374023 58.1032959 -1.77294922 56.91088867 C-1.77680137 53.80578827 -1.77680137 53.80578827 -4 51 C-4.66 50.67 -5.32 50.34 -6 50 C-6 41.75 -6 33.5 -6 25 C-10.95 25 -15.9 25 -21 25 C-20.67 24.34 -20.34 23.68 -20 23 C-19.67 22.01 -19.34 21.02 -19 20 C-14.71 20 -10.42 20 -6 20 C-6 20.99 -6 21.98 -6 23 C-5.01 23.66 -4.02 24.32 -3 25 C-2.74951364 22.12549017 -2.74951364 22.12549017 -3 19 C-3.495 18.5875 -3.99 18.175 -4.5 17.75 C-6.87231232 14.98230229 -6.2852199 12.36298966 -6.1875 8.8125 C-6.16042969 7.54019531 -6.13335937 6.26789063 -6.10546875 4.95703125 C-6.07066406 3.98121094 -6.03585938 3.00539063 -6 2 C-1.125 0 -1.125 0 0 0 Z " fill="#152E43" transform="translate(219,288)"/>
<path d="M0 0 C7.59 0 15.18 0 23 0 C23 7.26 23 14.52 23 22 C15.74 22 8.48 22 1 22 C0.67 14.74 0.34 7.48 0 0 Z " fill="#F9FBFB" transform="translate(168,342)"/>
<path d="M0 0 C6.93 0 13.86 0 21 0 C21 7.59 21 15.18 21 23 C14.07 23 7.14 23 0 23 C0 15.41 0 7.82 0 0 Z " fill="#FBFDFD" transform="translate(169,313)"/>
<path d="M0 0 C5.1665625 -0.0309375 5.1665625 -0.0309375 10.4375 -0.0625 C11.52474365 -0.071604 12.6119873 -0.08070801 13.73217773 -0.09008789 C15.00750366 -0.09383423 15.00750366 -0.09383423 16.30859375 -0.09765625 C17.62041626 -0.10551147 17.62041626 -0.10551147 18.95874023 -0.11352539 C21 0 21 0 22 1 C22.09860131 2.40348735 22.13078937 3.81180477 22.1328125 5.21875 C22.13474609 6.49298828 22.13474609 6.49298828 22.13671875 7.79296875 C22.13285156 8.68628906 22.12898438 9.57960938 22.125 10.5 C22.13080078 11.83998047 22.13080078 11.83998047 22.13671875 13.20703125 C22.13542969 14.05652344 22.13414062 14.90601563 22.1328125 15.78125 C22.13168457 16.56564453 22.13055664 17.35003906 22.12939453 18.15820312 C22 20 22 20 21 21 C19.43827255 21.08685603 17.87270656 21.10702219 16.30859375 21.09765625 C15.45837646 21.09515869 14.60815918 21.09266113 13.73217773 21.09008789 C12.64493408 21.08098389 11.55769043 21.07187988 10.4375 21.0625 C6.993125 21.041875 3.54875 21.02125 0 21 C0 14.07 0 7.14 0 0 Z " fill="#F8FBFB" transform="translate(169,253)"/>
<path d="M0 0 C1.58206422 0.00574487 3.16410406 0.01876032 4.74609375 0.03515625 C7.53046875 0.05578125 10.31484375 0.07640625 13.18359375 0.09765625 C13.18359375 7.68765625 13.18359375 15.27765625 13.18359375 23.09765625 C7.24359375 23.09765625 1.30359375 23.09765625 -4.81640625 23.09765625 C-4.84323612 19.45177456 -4.86316194 15.80608779 -4.87890625 12.16015625 C-4.88728516 11.11923828 -4.89566406 10.07832031 -4.90429688 9.00585938 C-4.90913086 7.52182617 -4.90913086 7.52182617 -4.9140625 6.0078125 C-4.91929932 5.09136963 -4.92453613 4.17492676 -4.92993164 3.23071289 C-4.72990708 -0.52759796 -3.95096947 0.10109953 0 0 Z " fill="#F6F9FA" transform="translate(149.81640625,312.90234375)"/>
<path d="M0 0 C5.94 0 11.88 0 18 0 C18 7.26 18 14.52 18 22 C12.06 22 6.12 22 0 22 C0 14.74 0 7.48 0 0 Z " fill="#F9FCFD" transform="translate(145,342)"/>
<path d="M0 0 C5.61 0 11.22 0 17 0 C17 7.59 17 15.18 17 23 C11.72 23 6.44 23 1 23 C0.67 15.41 0.34 7.82 0 0 Z " fill="#F9FCFD" transform="translate(196,313)"/>
<path d="M0 0 C1.48831242 0.00667405 2.97660807 0.01863442 4.46484375 0.03515625 C5.22345703 0.03966797 5.98207031 0.04417969 6.76367188 0.04882812 C8.64326246 0.06064945 10.52281274 0.07858547 12.40234375 0.09765625 C12.43121887 3.74347312 12.4490996 7.38926088 12.46484375 11.03515625 C12.47322266 12.07607422 12.48160156 13.11699219 12.49023438 14.18945312 C12.49506836 15.67348633 12.49506836 15.67348633 12.5 17.1875 C12.50785522 18.56216431 12.50785522 18.56216431 12.51586914 19.96459961 C12.40234375 22.09765625 12.40234375 22.09765625 11.40234375 23.09765625 C8.87184973 23.17079192 6.36929538 23.19013152 3.83984375 23.16015625 C3.12892578 23.15564453 2.41800781 23.15113281 1.68554688 23.14648438 C-0.07555638 23.13466489 -1.83661661 23.11672888 -3.59765625 23.09765625 C-3.79354226 19.45222205 -3.97796161 15.80629835 -4.16015625 12.16015625 C-4.21623047 11.11923828 -4.27230469 10.07832031 -4.33007812 9.00585938 C-4.37841797 8.01650391 -4.42675781 7.02714844 -4.4765625 6.0078125 C-4.52369385 5.09136963 -4.5708252 4.17492676 -4.61938477 3.23071289 C-4.58196869 -0.44236819 -3.79182084 0.10292673 0 0 Z " fill="#F6F9FA" transform="translate(200.59765625,224.90234375)"/>
<path d="M0 0 C2.70348448 0.09099676 5.3671735 0.23748601 8.0625 0.4375 C10.681875 0.623125 13.30125 0.80875 16 1 C16 8.26 16 15.52 16 23 C10.72 23 5.44 23 0 23 C-0.19375643 19.35439834 -0.38030339 15.70868144 -0.5625 12.0625 C-0.61857422 11.02158203 -0.67464844 9.98066406 -0.73242188 8.90820312 C-0.78076172 7.91884766 -0.82910156 6.92949219 -0.87890625 5.91015625 C-0.9260376 4.99371338 -0.97316895 4.07727051 -1.02172852 3.13305664 C-1 1 -1 1 0 0 Z " fill="#FBFDFD" transform="translate(197,341)"/>
<path d="M0 0 C2.31 0 4.62 0 7 0 C7 33.66 7 67.32 7 102 C6.67 102 6.34 102 6 102 C5.67 87.15 5.34 72.3 5 57 C4.34 57 3.68 57 3 57 C2.34 57.99 1.68 58.98 1 60 C0.67 40.2 0.34 20.4 0 0 Z " fill="#324B5F" transform="translate(213,157)"/>
<path d="M0 0 C0.33 0 0.66 0 1 0 C1.33 7.26 1.66 14.52 2 22 C2.99 21.67 3.98 21.34 5 21 C5.33 22.32 5.66 23.64 6 25 C6 19.72 6 14.44 6 9 C6.33 9 6.66 9 7 9 C7 15.6 7 22.2 7 29 C12.28 29 17.56 29 23 29 C22.34 30.32 21.68 31.64 21 33 C17.7421875 33.828125 17.7421875 33.828125 13.875 34.25 C12.59367188 34.39953125 11.31234375 34.5490625 9.9921875 34.703125 C9.00476563 34.80109375 8.01734375 34.8990625 7 35 C7.02320313 36.10859375 7.04640625 37.2171875 7.0703125 38.359375 C7.08907577 39.82290992 7.10727537 41.28645214 7.125 42.75 C7.14175781 43.47960937 7.15851563 44.20921875 7.17578125 44.9609375 C7.24166808 52.20848881 7.24166808 52.20848881 5 55 C2.92236328 55.59667969 2.92236328 55.59667969 1 56 C0.97494385 55.31897217 0.9498877 54.63794434 0.92407227 53.9362793 C0.80809048 50.85316245 0.68537384 47.77034954 0.5625 44.6875 C0.52318359 43.61564453 0.48386719 42.54378906 0.44335938 41.43945312 C0.40146484 40.41142578 0.35957031 39.38339844 0.31640625 38.32421875 C0.26141968 36.9024231 0.26141968 36.9024231 0.20532227 35.4519043 C0.08569813 32.863829 0.08569813 32.863829 -1 30 C-1.01604778 27.71454362 -0.96563536 25.42839781 -0.87890625 23.14453125 C-0.85529526 22.48289474 -0.83168427 21.82125824 -0.80735779 21.13957214 C-0.73090143 19.03031998 -0.64680043 16.9214518 -0.5625 14.8125 C-0.5092612 13.38087804 -0.45652093 11.94923746 -0.40429688 10.51757812 C-0.27531118 7.01148424 -0.13946876 3.50569429 0 0 Z " fill="#142E42" transform="translate(190,219)"/>
<path d="M0 0 C1.48831242 0.00667405 2.97660807 0.01863442 4.46484375 0.03515625 C5.22345703 0.03966797 5.98207031 0.04417969 6.76367188 0.04882812 C8.64326246 0.06064945 10.52281274 0.07858547 12.40234375 0.09765625 C12.51034605 2.20070102 12.58793362 4.30532534 12.65234375 6.41015625 C12.69875 7.58191406 12.74515625 8.75367188 12.79296875 9.9609375 C12.40234375 13.09765625 12.40234375 13.09765625 10.703125 14.875 C8.2799494 16.16269773 5.88482668 17.31891503 3.33984375 18.34765625 C2.48261719 18.7034375 1.62539062 19.05921875 0.7421875 19.42578125 C-1.59765625 20.09765625 -1.59765625 20.09765625 -4.59765625 19.09765625 C-4.62449612 16.11843032 -4.64441662 13.1394433 -4.66015625 10.16015625 C-4.66853516 9.31001953 -4.67691406 8.45988281 -4.68554688 7.58398438 C-4.68876953 6.77509766 -4.69199219 5.96621094 -4.6953125 5.1328125 C-4.70054932 4.38394775 -4.70578613 3.63508301 -4.71118164 2.86352539 C-4.4947766 -0.50262006 -3.46898424 0.09416352 0 0 Z " fill="#F5FAFB" transform="translate(200.59765625,252.90234375)"/>
<path d="M0 0 C1.99954746 -0.04254356 4.00041636 -0.04080783 6 0 C7.95550217 1.95550217 7.18742004 5.68811818 7.203125 8.359375 C7.20882507 9.10076721 7.21452515 9.84215942 7.22039795 10.60601807 C7.22986385 12.17971361 7.23638822 13.75342912 7.24023438 15.32714844 C7.24990435 17.72626887 7.28089631 20.12451968 7.3125 22.5234375 C7.31903351 24.05207824 7.32428261 25.58072512 7.328125 27.109375 C7.3404718 27.82414001 7.3528186 28.53890503 7.36553955 29.27532959 C7.34612665 33.65521954 6.83354918 36.58878526 4 40 C3.01 40 2.02 40 1 40 C-0.63945963 36.72108075 -0.12030178 33.09386466 -0.09765625 29.4921875 C-0.0962413 28.65156769 -0.09482635 27.81094788 -0.09336853 26.94485474 C-0.08776237 24.25486725 -0.07520886 21.56496241 -0.0625 18.875 C-0.05748579 17.05338662 -0.05292275 15.23177193 -0.04882812 13.41015625 C-0.03779094 8.94007223 -0.0205222 4.47005014 0 0 Z " fill="#1F3A4E" transform="translate(228,218)"/>
<path d="M0 0 C0.33 0 0.66 0 1 0 C1 4.95 1 9.9 1 15 C6.28 15 11.56 15 17 15 C17 15.33 17 15.66 17 16 C10.73 16 4.46 16 -2 16 C-1.34 17.32 -0.68 18.64 0 20 C1.03158374 26.02081582 1.12337078 31.90355755 1.0625 38 C1.05798828 38.87011719 1.05347656 39.74023438 1.04882812 40.63671875 C1.0371736 42.75784293 1.01924357 44.8789311 1 47 C-1.31 47 -3.62 47 -6 47 C-6 38.75 -6 30.5 -6 22 C-7.98 21.34 -9.96 20.68 -12 20 C-11.34 19.01 -10.68 18.02 -10 17 C-15.61 16.67 -21.22 16.34 -27 16 C-27 15.67 -27 15.34 -27 15 C-18.09 15 -9.18 15 0 15 C0 10.05 0 5.1 0 0 Z " fill="#3C5163" transform="translate(196,349)"/>
<path d="M0 0 C0.33 0 0.66 0 1 0 C1.33 17.82 1.66 35.64 2 54 C2.33 51.36 2.66 48.72 3 46 C3.66 47.32 4.32 48.64 5 50 C11.27 50 17.54 50 24 50 C24 50.33 24 50.66 24 51 C18.39 51 12.78 51 7 51 C7.33 52.32 7.66 53.64 8 55 C7.67 55.66 7.34 56.32 7 57 C6.84655791 58.88472859 6.75040429 60.77427874 6.68359375 62.6640625 C6.64169922 63.78554688 6.59980469 64.90703125 6.55664062 66.0625 C6.49766602 67.8259375 6.49766602 67.8259375 6.4375 69.625 C6.39431641 70.80835938 6.35113281 71.99171875 6.30664062 73.2109375 C6.20032574 76.14050328 6.09829358 79.07015588 6 82 C4.02 82 2.04 82 0 82 C0 54.94 0 27.88 0 0 Z " fill="#273C4E" transform="translate(139,314)"/>
<path d="M0 0 C0.33 0 0.66 0 1 0 C1 9.57 1 19.14 1 29 C-3.24875 29.185625 -7.4975 29.37125 -11.875 29.5625 C-13.2141748 29.62381104 -14.55334961 29.68512207 -15.93310547 29.74829102 C-16.98385254 29.79139404 -18.03459961 29.83449707 -19.1171875 29.87890625 C-20.19597168 29.9260376 -21.27475586 29.97316895 -22.38623047 30.02172852 C-25 30 -25 30 -27 29 C-28.37342831 28.9310528 -29.75002102 28.91532292 -31.125 28.9375 C-32.40375 28.958125 -33.6825 28.97875 -35 29 C-35 28.67 -35 28.34 -35 28 C-33.5459375 27.5359375 -33.5459375 27.5359375 -32.0625 27.0625 C-29.15934208 26.30476658 -29.15934208 26.30476658 -28 25 C-33.28 24.67 -38.56 24.34 -44 24 C-44 23.67 -44 23.34 -44 23 C-38.39 23 -32.78 23 -27 23 C-27 22.34 -27 21.68 -27 21 C-26.01 21 -25.02 21 -24 21 C-22.89210465 16.94691667 -22.66268733 12.92888626 -22.4375 8.75 C-22.39431641 8.00492187 -22.35113281 7.25984375 -22.30664062 6.4921875 C-22.20103275 4.661651 -22.10005799 2.83084824 -22 1 C-21.67 1 -21.34 1 -21 1 C-21 8.26 -21 15.52 -21 23 C-14.07 23 -7.14 23 0 23 C0 15.41 0 7.82 0 0 Z " fill="#1A3144" transform="translate(190,313)"/>
<path d="M0 0 C0 35.97 0 71.94 0 109 C-3.96 109 -7.92 109 -12 109 C-12 74.35 -12 39.7 -12 4 C-11.67 4 -11.34 4 -11 4 C-10.67 37.99 -10.34 71.98 -10 107 C-3.6 106.8 -3.6 106.8 -2 105 C-1.89931209 101.88032011 -1.86385857 98.7827359 -1.87060547 95.66259766 C-1.86885315 94.68215988 -1.86710083 93.70172211 -1.86529541 92.6915741 C-1.8608741 89.43238585 -1.86381632 86.17325135 -1.8671875 82.9140625 C-1.86651443 80.65823354 -1.86554438 78.40240464 -1.86428833 76.14657593 C-1.86281089 71.41021029 -1.86496699 66.67386346 -1.86962891 61.9375 C-1.8753197 55.85861013 -1.87205159 49.77976447 -1.86605644 43.70087624 C-1.86244652 39.03927272 -1.86359152 34.37767972 -1.86618423 29.7160759 C-1.86685264 27.47452158 -1.86602807 25.23296632 -1.86370468 22.99141312 C-1.86117184 19.85964676 -1.86502806 16.72795238 -1.87060547 13.59619141 C-1.86858124 12.66412369 -1.86655701 11.73205597 -1.86447144 10.77174377 C-1.86729126 9.91923538 -1.87011108 9.06672699 -1.87301636 8.18838501 C-1.8735819 7.07726821 -1.8735819 7.07726821 -1.87415886 5.94370461 C-1.93139453 3.78202497 -1.93139453 3.78202497 -3 1 C-1 0 -1 0 0 0 Z " fill="#34424F" transform="translate(255,287)"/>
<path d="M0 0 C0 5.28 0 10.56 0 16 C-5.61 16 -11.22 16 -17 16 C-16.67 12.04 -16.34 8.08 -16 4 C-14.08594633 3.32586789 -12.16863974 2.6609668 -10.25 2 C-9.18265625 1.62875 -8.1153125 1.2575 -7.015625 0.875 C-4 0 -4 0 0 0 Z " fill="#F9FDFD" transform="translate(213,291)"/>
<path d="M0 0 C0.495 0.99 0.495 0.99 1 2 C0.19175781 2.50789063 -0.61648438 3.01578125 -1.44921875 3.5390625 C-8.28652259 7.71006321 -8.28652259 7.71006321 -13.8125 13.375 C-16.59766925 16.7172031 -18.87045197 16.89387106 -23 18 C-23.78375 18.804375 -24.5675 19.60875 -25.375 20.4375 C-28.84564752 23.82551306 -32.39237053 24.76527576 -37 26 C-37 26.66 -37 27.32 -37 28 C-38.98 28.99 -40.96 29.98 -43 31 C-43 31.66 -43 32.32 -43 33 C-42.195625 33.268125 -41.39125 33.53625 -40.5625 33.8125 C-36.375 35.20833333 -32.1875 36.60416667 -28 38 C-28.36801587 43.64290996 -30.15500135 47.5170618 -32.7890625 52.48828125 C-34.45156601 55.9366353 -35.23777097 59.25814837 -36 63 C-36.66 63 -37.32 63 -38 63 C-38.10183594 63.71542969 -38.20367187 64.43085938 -38.30859375 65.16796875 C-39.08432778 68.34541039 -40.32984083 70.54761835 -42.0625 73.3125 C-42.88427734 74.63701172 -42.88427734 74.63701172 -43.72265625 75.98828125 C-44.35494141 76.98408203 -44.35494141 76.98408203 -45 78 C-45.33 77.34 -45.66 76.68 -46 76 C-45.38256836 74.2668457 -45.38256836 74.2668457 -44.33984375 72.17578125 C-43.96077881 71.40105469 -43.58171387 70.62632812 -43.19116211 69.828125 C-42.77745361 68.99796875 -42.36374512 68.1678125 -41.9375 67.3125 C-38.92153573 61.10944456 -36.00399131 54.90380071 -33.4375 48.5 C-32.96183594 47.3140625 -32.48617188 46.128125 -31.99609375 44.90625 C-30.8378866 42.03904579 -30.8378866 42.03904579 -31 39 C-31.96421875 38.73445313 -32.9284375 38.46890625 -33.921875 38.1953125 C-35.18515625 37.84210938 -36.4484375 37.48890625 -37.75 37.125 C-39.62945312 36.60292969 -39.62945312 36.60292969 -41.546875 36.0703125 C-44.24953641 35.23260975 -46.5469357 34.37520272 -49 33 C-46.13049935 29.89474225 -43.31490226 27.85963755 -39.625 25.8125 C-25.91193205 17.98827667 -12.98390776 8.9621038 0 0 Z " fill="#3D93B1" transform="translate(385,87)"/>
<path d="M0 0 C2.81256281 -0.02684312 5.62487241 -0.04676188 8.4375 -0.0625 C9.23994141 -0.07087891 10.04238281 -0.07925781 10.86914062 -0.08789062 C12.91295221 -0.0965143 14.95683902 -0.0522815 17 0 C18 1 18 1 18.0625 4.0625 C18.041875 5.031875 18.02125 6.00125 18 7 C12.09696295 9.65034316 6.57457099 12 0 12 C0 8.04 0 4.08 0 0 Z " fill="#EDF5F7" transform="translate(145,279)"/>
<path d="M0 0 C0.763125 0.20625 1.52625 0.4125 2.3125 0.625 C2.3125 1.285 2.3125 1.945 2.3125 2.625 C4.7875 3.12 4.7875 3.12 7.3125 3.625 C6.9825 4.285 6.6525 4.945 6.3125 5.625 C5.384375 5.13 4.45625 4.635 3.5 4.125 C0.44722484 2.41210148 0.44722484 2.41210148 -2.6875 2.625 C-3.0278125 3.5221875 -3.368125 4.419375 -3.71875 5.34375 C-22.98057503 55.27153752 -22.98057503 55.27153752 -35.6875 61.625 C-34.00076082 57.12702887 -31.87076108 52.89613698 -29.6875 48.625 C-29.0275 48.625 -28.3675 48.625 -27.6875 48.625 C-27.6875 47.965 -27.6875 47.305 -27.6875 46.625 C-27.0275 46.625 -26.3675 46.625 -25.6875 46.625 C-25.6875 45.305 -25.6875 43.985 -25.6875 42.625 C-25.0275 42.625 -24.3675 42.625 -23.6875 42.625 C-23.749375 41.738125 -23.81125 40.85125 -23.875 39.9375 C-23.66461774 36.22074678 -22.79949542 34.63053194 -20.6875 31.625 C-20.0275 30.635 -19.3675 29.645 -18.6875 28.625 C-18.0275 28.625 -17.3675 28.625 -16.6875 28.625 C-16.6875 27.305 -16.6875 25.985 -16.6875 24.625 C-15.6975 23.965 -14.7075 23.305 -13.6875 22.625 C-12.32980676 20.06806964 -12.32980676 20.06806964 -11.1875 17.0625 C-10.75695312 15.99128906 -10.32640625 14.92007813 -9.8828125 13.81640625 C-8.59229132 10.37079904 -7.45957671 6.90781742 -6.4609375 3.3671875 C-5.04623266 0.18052913 -3.31131706 -0.46204424 0 0 Z " fill="#3192B5" transform="translate(386.6875,136.375)"/>
<path d="M0 0 C0.33 0 0.66 0 1 0 C1 27.72 1 55.44 1 84 C2.32 84.33 3.64 84.66 5 85 C5 63.22 5 41.44 5 19 C5.33 19 5.66 19 6 19 C6 41.44 6 63.88 6 87 C4.02 87 2.04 87 0 87 C0 58.29 0 29.58 0 0 Z " fill="#162C40" transform="translate(228,309)"/>
<path d="M0 0 C0.495 0.99 0.495 0.99 1 2 C4.3 1.67 7.6 1.34 11 1 C9.5625 3 9.5625 3 7 5 C4.67137546 5.17518093 2.42904805 5.0591543 0.09765625 4.94921875 C-2.74972646 5.0181498 -3.85266043 6.19900552 -6 8 C-10.07009886 9.40201735 -13.6854392 10 -18 10 C-18 10.66 -18 11.32 -18 12 C-18.94359375 12.27263672 -18.94359375 12.27263672 -19.90625 12.55078125 C-23.92180441 13.73004798 -27.87692273 14.90867042 -31.75 16.5 C-37.61469229 18.77020347 -43.86134619 19.72993369 -50 21 C-52.25372321 21.48294069 -54.50413926 21.98172445 -56.75 22.5 C-57.71421875 22.7165625 -58.6784375 22.933125 -59.671875 23.15625 C-62.33603229 23.86135147 -62.33603229 23.86135147 -64 27 C-64.66 25.68 -65.32 24.36 -66 23 C-43.82892726 16.20369804 -43.82892726 16.20369804 -36 14 C-33.66590888 13.33599132 -31.33270353 12.66886703 -29 12 C-27.62038086 11.60530518 -27.62038086 11.60530518 -26.21289062 11.20263672 C-23.05496804 10.29292051 -19.90227733 9.36657193 -16.75 8.4375 C-15.72390625 8.14423828 -14.6978125 7.85097656 -13.640625 7.54882812 C-12.20203125 7.12053711 -12.20203125 7.12053711 -10.734375 6.68359375 C-9.87038086 6.43150146 -9.00638672 6.17940918 -8.11621094 5.91967773 C-5.6621905 5.08046675 -5.6621905 5.08046675 -4 2 C-2.68 2.33 -1.36 2.66 0 3 C0 2.01 0 1.02 0 0 Z " fill="#3790B2" transform="translate(168,281)"/>
<path d="M0 0 C0 3.3 0 6.6 0 10 C5.61 10 11.22 10 17 10 C17 9.01 17 8.02 17 7 C20 8 20 8 21 10 C21.039992 11.99960012 21.04346799 14.00047242 21 16 C20.01 16 19.02 16 18 16 C17.4225 15.34 16.845 14.68 16.25 14 C14.04328181 11.65581853 14.04328181 11.65581853 10.375 11.5625 C8.704375 11.7790625 8.704375 11.7790625 7 12 C6.01 13.485 6.01 13.485 5 15 C1.375 15.6875 1.375 15.6875 -2 16 C-1.67 14.02 -1.34 12.04 -1 10 C-5.41522109 11.26974972 -5.41522109 11.26974972 -9 14 C-9.99 13.34 -10.98 12.68 -12 12 C-12 11.34 -12 10.68 -12 10 C-9.69 10 -7.38 10 -5 10 C-5 7.03 -5 4.06 -5 1 C-2 0 -2 0 0 0 Z " fill="#1F3A51" transform="translate(196,297)"/>
<path d="M0 0 C0.33 0 0.66 0 1 0 C1 46.2 1 92.4 1 140 C0.01 139.67 -0.98 139.34 -2 139 C-1.83826325 138.45562664 -1.67652651 137.91125328 -1.50988865 137.35038376 C-0.92215486 134.64116488 -0.85982367 132.16718118 -0.84178162 129.39385986 C-0.8319928 128.25245041 -0.82220398 127.11104095 -0.81211853 125.93504333 C-0.80636307 124.68707474 -0.8006076 123.43910614 -0.79467773 122.15332031 C-0.78477814 120.83600418 -0.77487854 119.51868805 -0.76467896 118.16145325 C-0.73766624 114.55232042 -0.71663704 110.94317457 -0.69667697 107.33399677 C-0.67479498 103.56099899 -0.64741712 99.78804119 -0.62062073 96.01507568 C-0.57072376 88.87183018 -0.52577382 81.72856245 -0.48259836 74.5852735 C-0.43320038 66.45229823 -0.37829175 58.31936309 -0.32291877 50.18642664 C-0.20914471 33.45765476 -0.10229572 16.72884609 0 0 Z " fill="#15293B" transform="translate(322,256)"/>
<path d="M0 0 C0 0.66 0 1.32 0 2 C-1.72601379 2.81917642 -3.4559647 3.63006016 -5.1875 4.4375 C-6.15042969 4.88996094 -7.11335938 5.34242188 -8.10546875 5.80859375 C-10.76631586 6.90381422 -13.16784755 7.54954796 -16 8 C-16 8.66 -16 9.32 -16 10 C-17.26839526 10.50615298 -18.53983102 11.00469099 -19.8125 11.5 C-20.52019531 11.7784375 -21.22789062 12.056875 -21.95703125 12.34375 C-24 13 -24 13 -27 13 C-27 13.66 -27 14.32 -27 15 C-29.97 15.66 -32.94 16.32 -36 17 C-36 17.66 -36 18.32 -36 19 C-36.67546875 19.18175781 -37.3509375 19.36351562 -38.046875 19.55078125 C-38.93890625 19.80214844 -39.8309375 20.05351562 -40.75 20.3125 C-42.07257813 20.67794922 -42.07257813 20.67794922 -43.421875 21.05078125 C-46.06526413 22.02402907 -47.77866959 23.30576494 -50 25 C-52.75 25.1875 -52.75 25.1875 -55 25 C-54.34 24.67 -53.68 24.34 -53 24 C-52.34444881 21.47266765 -52.34444881 21.47266765 -52 19 C-49.10765685 18.17361624 -47.11257569 18 -44 18 C-35.85539094 15.2366505 -27.96008454 11.70949597 -20.0625 8.3125 C-17 7 -17 7 -14.1875 6.0625 C-11.55855066 4.78558175 -10.98879801 3.69672185 -10 1 C-10 1.66 -10 2.32 -10 3 C-9.44570312 2.7834375 -8.89140625 2.566875 -8.3203125 2.34375 C-7.59585938 2.0653125 -6.87140625 1.786875 -6.125 1.5 C-5.40570313 1.2215625 -4.68640625 0.943125 -3.9453125 0.65625 C-2 0 -2 0 0 0 Z " fill="#3A95BA" transform="translate(239,255)"/>
<path d="M0 0 C0.66 0 1.32 0 2 0 C2.04241723 2.33294775 2.04092937 4.66702567 2 7 C1.67 7.33 1.34 7.66 1 8 C0.89249229 9.39097823 0.85320332 10.78730842 0.84178162 12.18238831 C0.8319928 13.08407745 0.82220398 13.9857666 0.81211853 14.91477966 C0.80636307 15.91171341 0.8006076 16.90864716 0.79467773 17.93579102 C0.78477814 18.97956909 0.77487854 20.02334717 0.76467896 21.09875488 C0.73295746 24.56711518 0.70826459 28.03548921 0.68359375 31.50390625 C0.66303341 33.90144721 0.6420372 36.29898448 0.62062073 38.69651794 C0.56530502 45.02091484 0.51593777 51.34534495 0.46777344 57.6697998 C0.41762759 64.1177874 0.36190551 70.56572648 0.30664062 77.01367188 C0.19894294 89.67573957 0.09733474 102.33784863 0 115 C1.32 115.33 2.64 115.66 4 116 C2.35 116 0.7 116 -1 116 C-1.02332977 101.02313694 -1.04097956 86.04627528 -1.05181217 71.06939793 C-1.05697496 64.11583919 -1.06401734 57.16229173 -1.07543945 50.20874023 C-1.08644694 43.50442791 -1.09227621 36.80012975 -1.09487724 30.09580803 C-1.09673202 27.53162387 -1.10035364 24.96744038 -1.10573006 22.40326118 C-1.11293659 18.82554842 -1.11399111 15.24788481 -1.11352539 11.67016602 C-1.11712067 10.59842636 -1.12071594 9.52668671 -1.12442017 8.42247009 C-1.1230455 7.45346771 -1.12167084 6.48446533 -1.12025452 5.48609924 C-1.12117631 4.63897149 -1.1220981 3.79184374 -1.12304783 2.91904545 C-1 1 -1 1 0 0 Z " fill="#223345" transform="translate(267,280)"/>
<path d="M0 0 C0 2.97 0 5.94 0 9 C-3.12471803 9.19417464 -6.2495627 9.38063188 -9.375 9.5625 C-10.70917969 9.64661133 -10.70917969 9.64661133 -12.0703125 9.73242188 C-13.34648437 9.80493164 -13.34648437 9.80493164 -14.6484375 9.87890625 C-15.43395996 9.9260376 -16.21948242 9.97316895 -17.02880859 10.02172852 C-19 10 -19 10 -21 9 C-21 8.34 -21 7.68 -21 7 C-17.87694627 5.82807565 -14.75125261 4.66336124 -11.625 3.5 C-10.73554688 3.16613281 -9.84609375 2.83226562 -8.9296875 2.48828125 C-8.07890625 2.17246094 -7.228125 1.85664063 -6.3515625 1.53125 C-5.17327881 1.09135742 -5.17327881 1.09135742 -3.97119141 0.64257812 C-2 0 -2 0 0 0 Z " fill="#F7FDFD" transform="translate(190,298)"/>
<path d="M0 0 C0.66 0 1.32 0 2 0 C2.11480713 0.6305127 2.22961426 1.26102539 2.34790039 1.91064453 C5.50474681 19.10597311 9.2359445 36.09793151 13.32324219 53.09106445 C13.93476042 55.71957805 14.48777882 58.35056958 15 61 C8.25 60.25 8.25 60.25 6 58 C7.98 58.33 9.96 58.66 12 59 C11.67 57.824375 11.34 56.64875 11 55.4375 C10.0030467 51.4988324 9.83130797 48.04860871 10 44 C9.34 44 8.68 44 8 44 C6.99839862 38.80476367 6.0016185 33.60863419 5.00927734 28.41162109 C4.6710809 26.64411506 4.33157286 24.87685947 3.99072266 23.10986328 C3.50077051 20.56868292 3.01555609 18.02663665 2.53125 15.484375 C2.37813354 14.69569031 2.22501709 13.90700562 2.06726074 13.09442139 C1.41426912 9.64430196 1 6.52556557 1 3 C0.01 2.67 -0.98 2.34 -2 2 C-1.34 1.34 -0.68 0.68 0 0 Z " fill="#3D95B1" transform="translate(389,84)"/>
<path d="M0 0 C0.66 0 1.32 0 2 0 C2.33 0.99 2.66 1.98 3 3 C2.67 3.33 2.34 3.66 2 4 C1.87463144 7.04329187 1.81387557 10.06497373 1.79467773 13.10961914 C1.78477814 14.06561508 1.77487854 15.02161102 1.76467896 16.00657654 C1.73296148 19.18274414 1.70826619 22.35892673 1.68359375 25.53515625 C1.66303306 27.73091533 1.64203684 29.92667036 1.62062073 32.12242126 C1.56530861 37.91416158 1.51593978 43.70593814 1.46777344 49.4977417 C1.41762497 55.40282434 1.36190425 61.30785404 1.30664062 67.21289062 C1.19894733 78.80854858 1.09752733 90.4042524 1 102 C0.67 102 0.34 102 0 102 C0 68.34 0 34.68 0 0 Z " fill="#0E273A" transform="translate(244,290)"/>
<path d="M0 0 C0.66 0.66 1.32 1.32 2 2 C1.67 2.33 1.34 2.66 1 3 C0.76256524 6.82533783 0.60332034 10.64419229 0.48242188 14.47460938 C0.44826172 15.27576172 0.41410156 16.07691406 0.37890625 16.90234375 C0.3538501 17.63960693 0.32879395 18.37687012 0.30297852 19.13647461 C0 21 0 21 -2 23 C-2.99 23 -3.98 23 -5 23 C-5.33 15.74 -5.66 8.48 -6 1 C-3.525 1.495 -3.525 1.495 -1 2 C-0.67 1.34 -0.34 0.68 0 0 Z " fill="#122E43" transform="translate(168,311)"/>
<path d="M0 0 C3.77076889 -0.05799124 7.54142334 -0.09359306 11.3125 -0.125 C12.38435547 -0.14175781 13.45621094 -0.15851563 14.56054688 -0.17578125 C15.58857422 -0.18222656 16.61660156 -0.18867188 17.67578125 -0.1953125 C18.62364502 -0.20578613 19.57150879 -0.21625977 20.5480957 -0.22705078 C23 0 23 0 26 2 C19.28309571 5.10010967 13.36783638 5.58942691 6 5 C5.34 4.67 4.68 4.34 4 4 C2.67139075 3.64830932 1.33841672 3.31229724 0 3 C0 2.01 0 1.02 0 0 Z " fill="#0F2D43" transform="translate(164,274)"/>
<path d="M0 0 C1.32 0.33 2.64 0.66 4 1 C-12.42777928 9.39732638 -12.42777928 9.39732638 -19.88671875 12.11328125 C-22.09933393 12.97961623 -22.09933393 12.97961623 -24.36328125 14.44140625 C-27.32349144 16.19121938 -30.28762381 17.40159505 -33.5 18.625 C-34.6034375 19.05039062 -35.706875 19.47578125 -36.84375 19.9140625 C-39.57428786 20.85352973 -42.15815641 21.52282477 -45 22 C-44.34 21.67 -43.68 21.34 -43 21 C-43 20.34 -43 19.68 -43 19 C-38.00703705 16.0554321 -33.66442374 15.36504064 -28 15 C-27.67 14.01 -27.34 13.02 -27 12 C-24.29120665 10.64560332 -21.99066732 10.93498549 -19 11 C-19 10.34 -19 9.68 -19 9 C-17.43979133 8.34865075 -15.87671421 7.70417036 -14.3125 7.0625 C-13.00732422 6.52302734 -13.00732422 6.52302734 -11.67578125 5.97265625 C-9.11820735 5.0429688 -6.6778677 4.45837375 -4 4 C-4 3.34 -4 2.68 -4 2 C-2.68 2 -1.36 2 0 2 C0 1.34 0 0.68 0 0 Z " fill="#3591B3" transform="translate(260,267)"/>
<path d="M0 0 C0.33 0 0.66 0 1 0 C1.33 7.26 1.66 14.52 2 22 C2.99 21.67 3.98 21.34 5 21 C5.33 22.32 5.66 23.64 6 25 C6 19.72 6 14.44 6 9 C6.33 9 6.66 9 7 9 C7 15.93 7 22.86 7 30 C7.99 30.33 8.98 30.66 10 31 C9.67 31.66 9.34 32.32 9 33 C7.35 33 5.7 33 4 33 C4 31.68 4 30.36 4 29 C2.68 28.67 1.36 28.34 0 28 C0 18.76 0 9.52 0 0 Z " fill="#394F60" transform="translate(190,219)"/>
<path d="M0 0 C3.3 0 6.6 0 10 0 C9.67 0.66 9.34 1.32 9 2 C8.77532169 3.53668865 8.59203195 5.07968054 8.4375 6.625 C8.35371094 7.44226563 8.26992187 8.25953125 8.18359375 9.1015625 C8.09271484 10.04128906 8.09271484 10.04128906 8 11 C7.67 11 7.34 11 7 11 C7 8.03 7 5.06 7 2 C5.98421875 2.38671875 4.9684375 2.7734375 3.921875 3.171875 C-2.63256038 5.65704849 -9.19542782 8.12355451 -15.8125 10.4375 C-16.74707031 10.76621094 -17.68164062 11.09492188 -18.64453125 11.43359375 C-21 12 -21 12 -24 11 C-23.21753906 10.57847656 -22.43507812 10.15695312 -21.62890625 9.72265625 C-20.61699219 9.17480469 -19.60507813 8.62695312 -18.5625 8.0625 C-17.55316406 7.51722656 -16.54382813 6.97195313 -15.50390625 6.41015625 C-13.13329507 5.22300532 -13.13329507 5.22300532 -12 4 C-9.65012738 3.76472227 -7.29443961 3.58613583 -4.9375 3.4375 C-3.64714844 3.35371094 -2.35679687 3.26992188 -1.02734375 3.18359375 C-0.02832031 3.12300781 0.97070312 3.06242187 2 3 C2 2.34 2 1.68 2 1 C1.34 0.67 0.68 0.34 0 0 Z " fill="#3094BA" transform="translate(183,296)"/>
<path d="M0 0 C0.66 0.33 1.32 0.66 2 1 C1.34 3.31 0.68 5.62 0 8 C0.99 7.67 1.98 7.34 3 7 C3 11.95 3 16.9 3 22 C1.35 22 -0.3 22 -2 22 C-2.05416741 19.27056463 -2.09375225 16.54221436 -2.125 13.8125 C-2.14175781 13.04357422 -2.15851563 12.27464844 -2.17578125 11.48242188 C-2.21266851 7.1850566 -1.9958504 3.92098169 0 0 Z " fill="#142D41" transform="translate(193,373)"/>
<path d="M0 0 C0.99 0.33 1.98 0.66 3 1 C2.979375 2.2375 2.95875 3.475 2.9375 4.75 C2.92828137 10.53008301 3.4551393 16.2497737 4 22 C2.02 22 0.04 22 -2 22 C-1.505 20.515 -1.505 20.515 -1 19 C-0.93100076 17.60311039 -0.91533711 16.20310456 -0.9375 14.8046875 C-0.94523438 14.00675781 -0.95296875 13.20882813 -0.9609375 12.38671875 C-0.97382813 11.55785156 -0.98671875 10.72898437 -1 9.875 C-1.04566888 6.91108965 -1.04715908 3.96512688 -1 1 C-0.67 0.67 -0.34 0.34 0 0 Z " fill="#1A344C" transform="translate(165,374)"/>
<path d="M0 0 C2.475 0.99 2.475 0.99 5 2 C5 2.99 5 3.98 5 5 C6.65 4.67 8.3 4.34 10 4 C10.33 5.32 10.66 6.64 11 8 C13.58373234 7.69055299 16.16695133 7.37756043 18.75 7.0625 C19.47960937 6.97548828 20.20921875 6.88847656 20.9609375 6.79882812 C24.37584442 6.37972591 27.67603543 5.882726 31 5 C28.27409468 8.71617562 24.2459653 9.21666986 20 10.1875 C19.27554688 10.36474609 18.55109375 10.54199219 17.8046875 10.72460938 C14.8056158 11.44117724 12.09349792 12 9 12 C7.24609375 10.390625 7.24609375 10.390625 5.4375 8.25 C4.83808594 7.55390625 4.23867187 6.8578125 3.62109375 6.140625 C2.11754827 4.15522037 1.02421999 2.2624561 0 0 Z " fill="#2F95B9" transform="translate(105,308)"/>
<path d="M0 0 C2.62506802 -0.02690844 5.24986173 -0.04679404 7.875 -0.0625 C8.62136719 -0.07087891 9.36773437 -0.07925781 10.13671875 -0.08789062 C15.7734375 -0.11328125 15.7734375 -0.11328125 18 1 C18 2.32 18 3.64 18 5 C15.3755252 5.24809955 12.75232855 5.4741699 10.125 5.6875 C9.37863281 5.76033203 8.63226563 5.83316406 7.86328125 5.90820312 C5.6953125 6.07421875 5.6953125 6.07421875 2 6 C0 3 0 3 0 0 Z " fill="#143249" transform="translate(194,365)"/>
<path d="M0 0 C0.33 0 0.66 0 1 0 C1 5.61 1 11.22 1 17 C6.28 17 11.56 17 17 17 C17 17.33 17 17.66 17 18 C16.14535156 18.06058594 15.29070312 18.12117188 14.41015625 18.18359375 C12.75306641 18.30927734 12.75306641 18.30927734 11.0625 18.4375 C9.96035156 18.51871094 8.85820312 18.59992188 7.72265625 18.68359375 C5.08890097 18.70418084 5.08890097 18.70418084 4 20 C9.94 20.99 9.94 20.99 16 22 C16 22.33 16 22.66 16 23 C14.96359375 22.98839844 13.9271875 22.97679687 12.859375 22.96484375 C11.48958514 22.95546163 10.11979332 22.94636188 8.75 22.9375 C8.06808594 22.92912109 7.38617188 22.92074219 6.68359375 22.91210938 C3.30657446 22.89571608 0.22708361 22.94371232 -3 24 C-2.01 22.515 -2.01 22.515 -1 21 C-0.67 20.34 -0.34 19.68 0 19 C-0.66 18.34 -1.32 17.68 -2 17 C-1.67 16.67 -1.34 16.34 -1 16 C-0.76321284 13.30764224 -0.57801975 10.63501844 -0.4375 7.9375 C-0.39431641 7.17888672 -0.35113281 6.42027344 -0.30664062 5.63867188 C-0.20026367 3.75934562 -0.09960066 1.87969756 0 0 Z " fill="#405667" transform="translate(196,319)"/>
<path d="M0 0 C0.33 0 0.66 0 1 0 C1 9.57 1 19.14 1 29 C-4.28 29 -9.56 29 -15 29 C-15 28.67 -15 28.34 -15 28 C-11.37 28 -7.74 28 -4 28 C-4.33 27.01 -4.66 26.02 -5 25 C-10.28 24.67 -15.56 24.34 -21 24 C-21 23.67 -21 23.34 -21 23 C-14.07 23 -7.14 23 0 23 C0 15.41 0 7.82 0 0 Z " fill="#566A7B" transform="translate(190,313)"/>
<path d="M0 0 C0.66 0.33 1.32 0.66 2 1 C0 4 0 4 -1.875 4.4375 C-4.21089117 4.8653396 -4.21089117 4.8653396 -6.0625 7.0625 C-6.701875 7.701875 -7.34125 8.34125 -8 9 C-8.99 9 -9.98 9 -11 9 C-11 9.66 -11 10.32 -11 11 C-13.90548882 13.04169485 -15.40142046 14 -19 14 C-19.33 14.99 -19.66 15.98 -20 17 C-22.32206525 17.70491267 -24.65593068 18.37212429 -27 19 C-27.33 19.66 -27.66 20.32 -28 21 C-29.65 21 -31.3 21 -33 21 C-29.06234216 17.63136786 -24.96649631 15.19815004 -20.4375 12.75 C-13.3553885 8.85336732 -6.64148153 4.61633281 0 0 Z " fill="#3292B4" transform="translate(276,232)"/>
<path d="M0 0 C0.33 0 0.66 0 1 0 C1 7.92 1 15.84 1 24 C-0.65 24 -2.3 24 -4 24 C-4 19.71 -4 15.42 -4 11 C-3.34 10.67 -2.68 10.34 -2 10 C-2 10.66 -2 11.32 -2 12 C-1.34 12 -0.68 12 0 12 C0 8.04 0 4.08 0 0 Z " fill="#162D40" transform="translate(144,371)"/>
<path d="M0 0 C0.66 1.32 1.32 2.64 2 4 C1.175 4.53625 0.35 5.0725 -0.5 5.625 C-3.33951208 7.80271869 -3.33951208 7.80271869 -3.3125 11.25 C-3.209375 12.1575 -3.10625 13.065 -3 14 C-3.99 14.33 -4.98 14.66 -6 15 C-7.33827304 16.66270287 -8.67189785 18.32916181 -10 20 C-10.66 20 -11.32 20 -12 20 C-12.309375 20.61875 -12.61875 21.2375 -12.9375 21.875 C-13.625 23.25 -14.3125 24.625 -15 26 C-15.66 25.67 -16.32 25.34 -17 25 C-16.59910156 24.44054687 -16.19820313 23.88109375 -15.78515625 23.3046875 C-11.66421172 17.49238025 -7.74995332 11.57480089 -3.93383789 5.56005859 C-1.09526436 1.09526436 -1.09526436 1.09526436 0 0 Z " fill="#2B94B7" transform="translate(338,166)"/>
<path d="M0 0 C0.763125 0.20625 1.52625 0.4125 2.3125 0.625 C2.3125 1.285 2.3125 1.945 2.3125 2.625 C4.7875 3.12 4.7875 3.12 7.3125 3.625 C6.9825 4.285 6.6525 4.945 6.3125 5.625 C5.384375 5.13 4.45625 4.635 3.5 4.125 C0.44722484 2.41210148 0.44722484 2.41210148 -2.6875 2.625 C-3.07421875 3.615 -3.4609375 4.605 -3.859375 5.625 C-6.54316819 12.44494134 -9.24757925 19.14207243 -12.6875 25.625 C-13.97880221 21.75109336 -13.08584397 20.66614434 -11.4375 17 C-9.46337218 12.50640518 -7.79270367 8.08890393 -6.4609375 3.3671875 C-5.04623266 0.18052913 -3.31131706 -0.46204424 0 0 Z " fill="#3994AF" transform="translate(386.6875,136.375)"/>
<path d="M0 0 C1.32 0.33 2.64 0.66 4 1 C-18.09978522 15.09960623 -18.09978522 15.09960623 -25 18 C-25.99 17.67 -26.98 17.34 -28 17 C-25.56680171 14.05454944 -23.67586393 13.67713283 -20 13 C-19.67 12.34 -19.34 11.68 -19 11 C-15.9375 10.375 -15.9375 10.375 -13 10 C-13 9.34 -13 8.68 -13 8 C-12.401875 7.9175 -11.80375 7.835 -11.1875 7.75 C-8.8357049 7.18640701 -8.8357049 7.18640701 -7.625 5 C-6 3 -6 3 -2.8125 2.25 C-1.4203125 2.12625 -1.4203125 2.12625 0 2 C0 1.34 0 0.68 0 0 Z " fill="#3894B4" transform="translate(292,249)"/>
<path d="M0 0 C7.59 0 15.18 0 23 0 C23 0.66 23 1.32 23 2 C19.83759418 4.10827055 18.49342531 4.33817465 14.8125 4.625 C13.91144531 4.69976562 13.01039063 4.77453125 12.08203125 4.8515625 C11.39496094 4.90054687 10.70789063 4.94953125 10 5 C10 4.01 10 3.02 10 2 C6.7 1.67 3.4 1.34 0 1 C0 0.67 0 0.34 0 0 Z " fill="#142B3D" transform="translate(140,274)"/>
<path d="M0 0 C4.95 0 9.9 0 15 0 C15.33 1.32 15.66 2.64 16 4 C13.89807303 4.24887295 11.79326036 4.4734719 9.6875 4.6875 C8.51574219 4.81511719 7.34398437 4.94273437 6.13671875 5.07421875 C3 5 3 5 1.08203125 3.64453125 C0 2 0 2 0 0 Z " fill="#163048" transform="translate(170,337)"/>
<path d="M0 0 C6.6 0 13.2 0 20 0 C20 0.33 20 0.66 20 1 C16.04 1 12.08 1 8 1 C7.67 2.65 7.34 4.3 7 6 C6.030625 6.12375 5.06125 6.2475 4.0625 6.375 C2.5465625 6.684375 2.5465625 6.684375 1 7 C0.67 7.66 0.34 8.32 0 9 C0 6.03 0 3.06 0 0 Z " fill="#21374D" transform="translate(192,219)"/>
<path d="M0 0 C-7.22804946 6.94348058 -14.48026822 12.67702622 -23 18 C-23.33 17.34 -23.66 16.68 -24 16 C-23.34 16 -22.68 16 -22 16 C-22 15.01 -22 14.02 -22 13 C-19 11 -19 11 -16 11 C-16 10.34 -16 9.68 -16 9 C-14.68 9 -13.36 9 -12 9 C-12 8.34 -12 7.68 -12 7 C-11.34 7 -10.68 7 -10 7 C-10 6.01 -10 5.02 -10 4 C-8.68 4 -7.36 4 -6 4 C-6 2.68 -6 1.36 -6 0 C-2.25 -1.125 -2.25 -1.125 0 0 Z " fill="#3394B6" transform="translate(322,230)"/>
<path d="M0 0 C1.485 0.99 1.485 0.99 3 2 C3.33 1.67 3.66 1.34 4 1 C4.66 1 5.32 1 6 1 C6 7.93 6 14.86 6 22 C5.67 22 5.34 22 5 22 C4.83069605 20.10440036 4.66467136 18.20850769 4.5 16.3125 C4.4071875 15.25675781 4.314375 14.20101563 4.21875 13.11328125 C4.0276585 10.39363975 3.95956065 7.72460144 4 5 C3.34 5 2.68 5 2 5 C2 11.27 2 17.54 2 24 C1.34 24 0.68 24 0 24 C0 16.08 0 8.16 0 0 Z " fill="#162A3B" transform="translate(163,370)"/>
<path d="M0 0 C0.33 1.32 0.66 2.64 1 4 C-0.0828125 4.60521484 -0.0828125 4.60521484 -1.1875 5.22265625 C-4.10478191 7.06621635 -6.47091768 9.09414716 -9 11.4375 C-18.27241963 20 -18.27241963 20 -21 20 C-21.226875 20.639375 -21.45375 21.27875 -21.6875 21.9375 C-23 24 -23 24 -25.625 24.75 C-26.40875 24.8325 -27.1925 24.915 -28 25 C-24.33541926 21.17009983 -20.46917414 17.94751397 -16.25 14.75 C-10.38408474 10.23508366 -5.05884371 5.42018969 0 0 Z " fill="#3892B0" transform="translate(306,207)"/>
<path d="M0 0 C0.33 0 0.66 0 1 0 C1 6.27 1 12.54 1 19 C0.34 18.01 -0.32 17.02 -1 16 C-1.66 16.33 -2.32 16.66 -3 17 C-4.03590199 11.94997778 -4.10251672 7.12583611 -4 2 C-3.01 2 -2.02 2 -1 2 C-0.67 1.34 -0.34 0.68 0 0 Z " fill="#1E394F" transform="translate(168,345)"/>
<path d="M0 0 C0.33 0.66 0.66 1.32 1 2 C2.32 1.67 3.64 1.34 5 1 C5.27615058 2.59987236 5.52007625 4.205333 5.75 5.8125 C5.88921875 6.70582031 6.0284375 7.59914063 6.171875 8.51953125 C6 11 6 11 4.140625 12.82421875 C2 14 2 14 0 14 C0 9.38 0 4.76 0 0 Z " fill="#0E324A" transform="translate(213,252)"/>
<path d="M0 0 C2.33944736 0.28730055 4.6739143 0.61936779 7 1 C4.54352494 2.63765004 2.77745872 3.54116621 0.0625 4.5 C-2.1849076 5.30528682 -4.15740353 6.08744641 -6.25 7.25 C-8.51333277 8.21999976 -9.72704155 7.81177087 -12 7 C-11.34 7 -10.68 7 -10 7 C-9.67 5.35 -9.34 3.7 -9 2 C-6.10765685 1.17361624 -4.11257569 1 -1 1 C-0.67 0.67 -0.34 0.34 0 0 Z " fill="#268DB8" transform="translate(196,272)"/>
<path d="M0 0 C0.66 0 1.32 0 2 0 C0.4928658 5.25487456 -2.93007198 8.47940694 -6.625 12.3125 C-7.54152344 13.28026367 -7.54152344 13.28026367 -8.4765625 14.26757812 C-9.97810336 15.8512345 -11.48593043 17.42833341 -13 19 C-13.33 18.01 -13.66 17.02 -14 16 C-13.01 15.67 -12.02 15.34 -11 15 C-11 13.68 -11 12.36 -11 11 C-10.0409375 10.5978125 -10.0409375 10.5978125 -9.0625 10.1875 C-6.66868314 9.11332248 -6.66868314 9.11332248 -6 6 C-5.01 6 -4.02 6 -3 6 C-2.87625 5.38125 -2.7525 4.7625 -2.625 4.125 C-2 2 -2 2 0 0 Z " fill="#3B95B8" transform="translate(349,198)"/>
<path d="M0 0 C1 3 1 3 0 5.8125 C-2.36005307 9.57383458 -5.06542802 12.8254086 -9 15 C-11.22265625 14.66015625 -11.22265625 14.66015625 -13 14 C-12.48050781 13.49210938 -11.96101563 12.98421875 -11.42578125 12.4609375 C-7.3775629 8.46509906 -3.55349109 4.44186386 0 0 Z " fill="#2B93B4" transform="translate(320,192)"/>
<path d="M0 0 C0 0.66 0 1.32 0 2 C-2.64 2.99 -5.28 3.98 -8 5 C-5.69 5.33 -3.38 5.66 -1 6 C-1 6.33 -1 6.66 -1 7 C-3.12437212 7.19448477 -5.24953191 7.38038289 -7.375 7.5625 C-8.55835938 7.66691406 -9.74171875 7.77132813 -10.9609375 7.87890625 C-14 8 -14 8 -16 7 C-16 6.34 -16 5.68 -16 5 C-13.70967689 4.16280617 -11.41789043 3.3301071 -9.125 2.5 C-8.47402344 2.26152344 -7.82304687 2.02304687 -7.15234375 1.77734375 C-2.2265625 0 -2.2265625 0 0 0 Z " fill="#DBEFF4" transform="translate(185,300)"/>
<path d="M0 0 C0.33 0.66 0.66 1.32 1 2 C-4.44535609 5.38495108 -9.67721029 5.67373505 -16 6 C-16 4.68 -16 3.36 -16 2 C-14.64455078 1.90912109 -14.64455078 1.90912109 -13.26171875 1.81640625 C-11.49248047 1.69072266 -11.49248047 1.69072266 -9.6875 1.5625 C-7.92986328 1.44068359 -7.92986328 1.44068359 -6.13671875 1.31640625 C-2.97409042 1.1132629 -2.97409042 1.1132629 0 0 Z " fill="#549BB9" transform="translate(185,277)"/>
<path d="M0 0 C0 5.28 0 10.56 0 16 C-0.33 16 -0.66 16 -1 16 C-1 12.37 -1 8.74 -1 5 C-1.99 5 -2.98 5 -4 5 C-4 9.29 -4 13.58 -4 18 C-4.33 18 -4.66 18 -5 18 C-5 12.39 -5 6.78 -5 1 C-3 0 -3 0 0 0 Z " fill="#0E2D40" transform="translate(145,313)"/>
<path d="M0 0 C3 1 3 1 4 3 C4.039992 4.99960012 4.04346799 7.00047242 4 9 C3.01 9 2.02 9 1 9 C0.4225 8.360625 -0.155 7.72125 -0.75 7.0625 C-3.70966498 4.34947377 -6.07507941 4.30191697 -10 4 C-10 3.67 -10 3.34 -10 3 C-6.7 3 -3.4 3 0 3 C0 2.01 0 1.02 0 0 Z " fill="#1E3A55" transform="translate(213,304)"/>
<path d="M0 0 C0.33 0 0.66 0 1 0 C1.05429959 1.74965358 1.09292823 3.49979787 1.125 5.25 C1.14820313 6.22453125 1.17140625 7.1990625 1.1953125 8.203125 C0.99395116 11.08661938 0.69930818 12.67013093 -1 15 C-2.32 15.33 -3.64 15.66 -5 16 C-4.67 12.37 -4.34 8.74 -4 5 C-3.34 5 -2.68 5 -2 5 C-1.67 5.66 -1.34 6.32 -1 7 C-0.67 4.69 -0.34 2.38 0 0 Z " fill="#19394F" transform="translate(196,259)"/>
<path d="M0 0 C0 12.21 0 24.42 0 37 C-0.33 37 -0.66 37 -1 37 C-1.01458252 36.01080566 -1.02916504 35.02161133 -1.04418945 34.00244141 C-1.1020897 30.33817081 -1.17932152 26.67452015 -1.26245117 23.01074219 C-1.2957398 21.42393035 -1.32375947 19.83699897 -1.34643555 18.25 C-1.37991078 15.97083516 -1.4322186 13.69276959 -1.48828125 11.4140625 C-1.49786613 10.34679428 -1.49786613 10.34679428 -1.50764465 9.25796509 C-1.54009648 7.0399544 -1.54009648 7.0399544 -2 4 C-2.99 3.34 -3.98 2.68 -5 2 C-2 0 -2 0 0 0 Z " fill="#2E3F4C" transform="translate(278,275)"/>
<path d="M0 0 C7.92 0 15.84 0 24 0 C23.01 0.99 22.02 1.98 21 3 C20.01 4.485 20.01 4.485 19 6 C17.68 5.34 16.36 4.68 15 4 C15.66 3.34 16.32 2.68 17 2 C11.39 1.67 5.78 1.34 0 1 C0 0.67 0 0.34 0 0 Z " fill="#31495C" transform="translate(169,364)"/>
<path d="M0 0 C2.475 0.495 2.475 0.495 5 1 C5 3.31 5 5.62 5 8 C4.67 7.34 4.34 6.68 4 6 C3.01 6 2.02 6 1 6 C1 11.28 1 16.56 1 22 C0.67 22 0.34 22 0 22 C0 14.74 0 7.48 0 0 Z " fill="#152A3C" transform="translate(163,341)"/>
<path d="M0 0 C-5.71735105 2.45029331 -9.79029227 3.33266291 -16 3 C-15 1 -15 1 -13 -1 C-10.9765625 -1.484375 -10.9765625 -1.484375 -8.625 -1.75 C-7.85414063 -1.84796875 -7.08328125 -1.9459375 -6.2890625 -2.046875 C-3.68385332 -1.99352601 -2.21946143 -1.31748852 0 0 Z " fill="#0B314B" transform="translate(190,276)"/>
<path d="M0 0 C0 2.97 0 5.94 0 9 C-1.65 9.33 -3.3 9.66 -5 10 C-5 7.03 -5 4.06 -5 1 C-2 0 -2 0 0 0 Z " fill="#0F2E43" transform="translate(196,297)"/>
<path d="M0 0 C-7.28774863 3.81739214 -12.84112659 5.32635494 -21 5 C-17.61851324 3.16836134 -14.16142821 1.9755913 -10.5 0.8125 C-9.3759375 0.44769531 -8.251875 0.08289063 -7.09375 -0.29296875 C-4.14684278 -0.96644123 -2.76852654 -1.06533987 0 0 Z " fill="#053D5C" transform="translate(169,307)"/>
<path d="M0 0 C3.63 0.66 7.26 1.32 11 2 C11 2.99 11 3.98 11 5 C10.030625 4.835 9.06125 4.67 8.0625 4.5 C6.04016429 4.14007707 6.04016429 4.14007707 4 4 C3.34 4 2.68 4 2 4 C1.67 7.3 1.34 10.6 1 14 C0.67 14 0.34 14 0 14 C0 9.38 0 4.76 0 0 Z " fill="#253849" transform="translate(139,274)"/>
<path d="M0 0 C0.33 0 0.66 0 1 0 C1 3.96 1 7.92 1 12 C-2.63 12 -6.26 12 -10 12 C-9.67 10.68 -9.34 9.36 -9 8 C-9 8.66 -9 9.32 -9 10 C-4.65815798 9.81535634 -4.65815798 9.81535634 -1 8 C-0.76924918 6.65252916 -0.58846937 5.29622435 -0.4375 3.9375 C-0.293125 2.638125 -0.14875 1.33875 0 0 Z " fill="#1C303F" transform="translate(254,384)"/>
<path d="M0 0 C5.94 0 11.88 0 18 0 C18.33 1.98 18.66 3.96 19 6 C15.7 6 12.4 6 9 6 C9 5.67 9 5.34 9 5 C10.4540625 4.5359375 10.4540625 4.5359375 11.9375 4.0625 C14.84065792 3.30476658 14.84065792 3.30476658 16 2 C10.72 1.67 5.44 1.34 0 1 C0 0.67 0 0.34 0 0 Z " fill="#445B6D" transform="translate(146,336)"/>
<path d="M0 0 C0.66 0 1.32 0 2 0 C2.14368684 8.71700174 1.71961582 17.31320899 1 26 C0.67 26 0.34 26 0 26 C-1.33257403 8.14350797 -1.33257403 8.14350797 0 0 Z " fill="#293949" transform="translate(299,262)"/>
<path d="M0 0 C0.33 0.99 0.66 1.98 1 3 C-3.38130557 7.58146674 -7.54843278 11.72905967 -13 15 C-13.66 14.67 -14.32 14.34 -15 14 C-14.33613281 13.40832031 -13.67226563 12.81664062 -12.98828125 12.20703125 C-8.55061038 8.2358017 -4.14213205 4.28020312 0 0 Z " fill="#E0F9FC" transform="translate(335,217)"/>
<path d="M0 0 C3.0390625 -0.29296875 3.0390625 -0.29296875 6.625 -0.1875 C7.81351563 -0.16042969 9.00203125 -0.13335937 10.2265625 -0.10546875 C11.14179688 -0.07066406 12.05703125 -0.03585937 13 0 C12.67 0.99 12.34 1.98 12 3 C7.38 3 2.76 3 -2 3 C-1.34 2.01 -0.68 1.02 0 0 Z " fill="#E7F0F5" transform="translate(243,396)"/>
<path d="M0 0 C-2.26607052 1.03275341 -4.53681939 2.05133551 -6.8125 3.0625 C-7.77639648 3.50432617 -7.77639648 3.50432617 -8.75976562 3.95507812 C-13.66015625 6.11328125 -13.66015625 6.11328125 -17 5 C-16.34 5 -15.68 5 -15 5 C-15 4.34 -15 3.68 -15 3 C-9.68559837 0.15741308 -5.90359388 -1.6440388 0 0 Z " fill="#3C9BC0" transform="translate(232,283)"/>
<path d="M0 0 C2.6015625 -0.29296875 2.6015625 -0.29296875 5.625 -0.1875 C7.12933594 -0.14689453 7.12933594 -0.14689453 8.6640625 -0.10546875 C9.43492187 -0.07066406 10.20578125 -0.03585938 11 0 C10.67 0.99 10.34 1.98 10 3 C6.04 3 2.08 3 -2 3 C-1.34 2.01 -0.68 1.02 0 0 Z " fill="#13304A" transform="translate(200,221)"/>
<path d="M0 0 C0.66 1.32 1.32 2.64 2 4 C1.278125 4.495 0.55625 4.99 -0.1875 5.5 C-3.65888511 8.58567566 -5.7163468 11.99631864 -8 16 C-8.66 15.67 -9.32 15.34 -10 15 C-8.52235475 12.68651501 -7.04296381 10.37418021 -5.5625 8.0625 C-5.14162109 7.40314453 -4.72074219 6.74378906 -4.28710938 6.06445312 C-1.11328125 1.11328125 -1.11328125 1.11328125 0 0 Z " fill="#3792B1" transform="translate(338,166)"/>
<path d="M0 0 C-0.68707031 0.19335938 -1.37414062 0.38671875 -2.08203125 0.5859375 C-2.98308594 0.84632813 -3.88414062 1.10671875 -4.8125 1.375 C-5.70582031 1.63023437 -6.59914062 1.88546875 -7.51953125 2.1484375 C-10.20467896 2.95266661 -10.20467896 2.95266661 -13 5 C-16.1875 5.125 -16.1875 5.125 -19 5 C-17.39997098 1.79994196 -14.22837217 1.09317157 -11 0 C-6.89958675 -0.83398236 -3.99244856 -1.14815514 0 0 Z " fill="#2888AD" transform="translate(158,309)"/>
<path d="M0 0 C-0.125 3.25 -0.125 3.25 -1 7 C-4.0625 9.4375 -4.0625 9.4375 -7 11 C-6.67 9.35 -6.34 7.7 -6 6 C-5.01 5.67 -4.02 5.34 -3 5 C-3 3.68 -3 2.36 -3 1 C-1 0 -1 0 0 0 Z " fill="#2796BF" transform="translate(373,160)"/>
<path d="M0 0 C4.29 0 8.58 0 13 0 C12.34 1.32 11.68 2.64 11 4 C10.01 3.67 9.02 3.34 8 3 C6.60560336 2.93334624 5.20830125 2.91461801 3.8125 2.9375 C2.554375 2.958125 1.29625 2.97875 0 3 C0 2.01 0 1.02 0 0 Z " fill="#E5EDF4" transform="translate(266,396)"/>
<path d="M0 0 C0 0.66 0 1.32 0 2 C-1.76505435 2.86604534 -3.53728074 3.71748642 -5.3125 4.5625 C-6.79169922 5.27599609 -6.79169922 5.27599609 -8.30078125 6.00390625 C-11 7 -11 7 -14 6 C-13.34 5.67 -12.68 5.34 -12 5 C-10.86649466 2.98330173 -10.86649466 2.98330173 -10 1 C-10 1.66 -10 2.32 -10 3 C-9.44570312 2.7834375 -8.89140625 2.566875 -8.3203125 2.34375 C-7.59585938 2.0653125 -6.87140625 1.786875 -6.125 1.5 C-5.40570313 1.2215625 -4.68640625 0.943125 -3.9453125 0.65625 C-2 0 -2 0 0 0 Z " fill="#2E89AE" transform="translate(239,255)"/>
<path d="M0 0 C1.65 0 3.3 0 5 0 C5.12375 0.639375 5.2475 1.27875 5.375 1.9375 C5.684375 2.9584375 5.684375 2.9584375 6 4 C6.66 4.33 7.32 4.66 8 5 C5.36 5.33 2.72 5.66 0 6 C-1.125 2.25 -1.125 2.25 0 0 Z " fill="#1E3B55" transform="translate(165,337)"/>
<path d="M0 0 C0.66 0.33 1.32 0.66 2 1 C-1.63 4.63 -5.26 8.26 -9 12 C-9.33 10.68 -9.66 9.36 -10 8 C-9.195625 7.54625 -8.39125 7.0925 -7.5625 6.625 C-4.91143428 5.25274335 -4.91143428 5.25274335 -4 3 C-3.34 3 -2.68 3 -2 3 C-2 2.34 -2 1.68 -2 1 C-1.34 0.67 -0.68 0.34 0 0 Z " fill="#3790B3" transform="translate(333,217)"/>
<path d="M0 0 C3.3 0 6.6 0 10 0 C10.33 0.66 10.66 1.32 11 2 C9.58622218 2.36552803 8.16879424 2.71695495 6.75 3.0625 C5.96109375 3.25972656 5.1721875 3.45695313 4.359375 3.66015625 C1.89605178 4.01497267 0.34395868 3.76877544 -2 3 C-1.34 2.34 -0.68 1.68 0 1 C0 0.67 0 0.34 0 0 Z " fill="#1B384E" transform="translate(199,249)"/>
<path d="M0 0 C0.763125 0.20625 1.52625 0.4125 2.3125 0.625 C2.3125 1.285 2.3125 1.945 2.3125 2.625 C3.9625 2.955 5.6125 3.285 7.3125 3.625 C6.9825 4.285 6.6525 4.945 6.3125 5.625 C5.384375 5.13 4.45625 4.635 3.5 4.125 C0.44722484 2.41210148 0.44722484 2.41210148 -2.6875 2.625 C-3.3475 3.615 -4.0075 4.605 -4.6875 5.625 C-5.0175 4.305 -5.3475 2.985 -5.6875 1.625 C-2.6875 -0.375 -2.6875 -0.375 0 0 Z " fill="#3B98BA" transform="translate(386.6875,136.375)"/>
<path d="M0 0 C0.66 0 1.32 0 2 0 C3.38529821 5.45461169 4.2396943 10.36718401 4 16 C2.32889958 13.03821227 1.67317248 10.62928808 1.375 7.25 C1.30023438 6.45078125 1.22546875 5.6515625 1.1484375 4.828125 C1.07496094 3.92320313 1.07496094 3.92320313 1 3 C0.01 2.67 -0.98 2.34 -2 2 C-1.34 1.34 -0.68 0.68 0 0 Z " fill="#3B8BAB" transform="translate(389,84)"/>
<path d="M0 0 C-2.31 1.65 -4.62 3.3 -7 5 C-7.99 4.01 -8.98 3.02 -10 2 C-7.20652751 -0.79347249 -3.65536205 -1.82768103 0 0 Z " fill="#1D354B" transform="translate(178,308)"/>
<path d="M0 0 C3.3 0 6.6 0 10 0 C9.67 0.66 9.34 1.32 9 2 C8.77532169 3.53668865 8.59203195 5.07968054 8.4375 6.625 C8.35371094 7.44226563 8.26992187 8.25953125 8.18359375 9.1015625 C8.12300781 9.72804688 8.06242188 10.35453125 8 11 C7.67 11 7.34 11 7 11 C7 8.03 7 5.06 7 2 C4.69 1.67 2.38 1.34 0 1 C0 0.67 0 0.34 0 0 Z " fill="#50A1C2" transform="translate(183,296)"/>
<path d="M0 0 C-0.99 0.33 -1.98 0.66 -3 1 C-2.67 2.32 -2.34 3.64 -2 5 C-2.99 5.33 -3.98 5.66 -5 6 C-5 5.34 -5 4.68 -5 4 C-5.99 4 -6.98 4 -8 4 C-7 1 -7 1 -4.5625 -0.25 C-2 -1 -2 -1 0 0 Z " fill="#213548" transform="translate(255,287)"/>
<path d="M0 0 C0.99 0.33 1.98 0.66 3 1 C3 6.28 3 11.56 3 17 C2.67 17 2.34 17 2 17 C1.66151348 15.10507994 1.32943089 13.20901534 1 11.3125 C0.814375 10.25675781 0.62875 9.20101562 0.4375 8.11328125 C0.04931926 5.35095938 -0.08259976 2.78257957 0 0 Z " fill="#DBF7FA" transform="translate(393,93)"/>
<path d="M0 0 C-0.33 1.98 -0.66 3.96 -1 6 C-2.32 6 -3.64 6 -5 6 C-5.33 5.01 -5.66 4.02 -6 3 C-4.60722783 0.21445565 -3.01148006 0 0 0 Z " fill="#0F3554" transform="translate(195,307)"/>
<path d="M0 0 C0.66 0 1.32 0 2 0 C2.08167446 1.41569064 2.13949698 2.83276805 2.1875 4.25 C2.22230469 5.03890625 2.25710937 5.8278125 2.29296875 6.640625 C2 9 2 9 -1 13 C-0.67 8.71 -0.34 4.42 0 0 Z " fill="#103048" transform="translate(192,231)"/>
<path d="M0 0 C1.32 0.33 2.64 0.66 4 1 C3.67 1.33 3.34 1.66 3 2 C2.6068352 3.67884238 2.25914548 5.36850045 1.9375 7.0625 C1.76089844 7.98160156 1.58429688 8.90070313 1.40234375 9.84765625 C1.26957031 10.55792969 1.13679687 11.26820313 1 12 C0.67 12 0.34 12 0 12 C0 8.04 0 4.08 0 0 Z " fill="#152D41" transform="translate(213,292)"/>
<path d="M0 0 C0.99 0 1.98 0 3 0 C2.6875 2.375 2.6875 2.375 2 5 C-1 7 -1 7 -3.1875 6.625 C-3.785625 6.41875 -4.38375 6.2125 -5 6 C-4.34 5.34 -3.68 4.68 -3 4 C-2.01 4 -1.02 4 0 4 C0 2.68 0 1.36 0 0 Z " fill="#1A96C0" transform="translate(307,207)"/>
<path d="M0 0 C0.66 0.33 1.32 0.66 2 1 C0.84826645 3.46800047 -0.04783565 5.04783565 -2 7 C-3.32 6.67 -4.64 6.34 -6 6 C-4.02 4.02 -2.04 2.04 0 0 Z " fill="#3497BB" transform="translate(313,200)"/>
<path d="M0 0 C1.64826111 2.96687001 2.44271087 5.65626525 3 9 C-3.75 8.25 -3.75 8.25 -6 6 C-3.03 6.495 -3.03 6.495 0 7 C0 4.69 0 2.38 0 0 Z " fill="#529DB4" transform="translate(401,136)"/>
<path d="M0 0 C0 0.66 0 1.32 0 2 C-0.99 2.495 -0.99 2.495 -2 3 C-2 4.32 -2 5.64 -2 7 C-3.98 6.34 -5.96 5.68 -8 5 C-3.16129032 0 -3.16129032 0 0 0 Z " fill="#4296AF" transform="translate(344,115)"/>
<path d="M0 0 C-1.32 1.32 -2.64 2.64 -4 4 C-5.98 3.34 -7.96 2.68 -10 2 C-6.5980513 -0.09350689 -3.94727588 -0.17942163 0 0 Z " fill="#3098BD" transform="translate(179,282)"/>
<path d="M0 0 C2.475 0.495 2.475 0.495 5 1 C5 2.32 5 3.64 5 5 C3.68 5.33 2.36 5.66 1 6 C0.67 4.02 0.34 2.04 0 0 Z " fill="#0F324A" transform="translate(163,279)"/>
<path d="M0 0 C0.33 0.66 0.66 1.32 1 2 C-2.63 2 -6.26 2 -10 2 C-9 0 -9 0 -7.25 -0.6875 C-4.56103961 -1.06096672 -2.59598075 -0.77177806 0 0 Z " fill="#1E3446" transform="translate(299,394)"/>
<path d="M0 0 C1.98 0 3.96 0 6 0 C5.34 0.66 4.68 1.32 4 2 C4.33 2.99 4.66 3.98 5 5 C3.68 5.99 2.36 6.98 1 8 C1.020625 7.05125 1.04125 6.1025 1.0625 5.125 C1.22551826 2.09333717 1.22551826 2.09333717 0 0 Z " fill="#2B4153" transform="translate(228,218)"/>
<path d="M0 0 C2.00720923 0.28674418 4.0085944 0.61866701 6 1 C4 4 4 4 1.875 4.6875 C1.25625 4.790625 0.6375 4.89375 0 5 C-0.5625 3.0625 -0.5625 3.0625 -1 1 C-0.67 0.67 -0.34 0.34 0 0 Z " fill="#0C3250" transform="translate(191,337)"/>
<path d="M0 0 C-1.32 0.33 -2.64 0.66 -4 1 C-4 1.66 -4 2.32 -4 3 C-6.31 3.33 -8.62 3.66 -11 4 C-11 3.34 -11 2.68 -11 2 C-7.17679443 0.57741188 -4.08718695 -0.24042276 0 0 Z " fill="#2A92BC" transform="translate(227,262)"/>
<path d="M0 0 C1.9375 0.3125 1.9375 0.3125 4 1 C4.33 1.99 4.66 2.98 5 4 C3.02 4.99 3.02 4.99 1 6 C-0.0625 4.125 -0.0625 4.125 -1 2 C-0.67 1.34 -0.34 0.68 0 0 Z " fill="#0F3552" transform="translate(190,247)"/>
<path d="M0 0 C-1 2 -1 2 -2.84765625 2.6328125 C-3.57855469 2.79523438 -4.30945313 2.95765625 -5.0625 3.125 C-5.79597656 3.29257813 -6.52945312 3.46015625 -7.28515625 3.6328125 C-7.85105469 3.75398438 -8.41695313 3.87515625 -9 4 C-8 1 -8 1 -6.1875 -0.25 C-3.66056586 -1.11637742 -2.47778006 -0.88492145 0 0 Z " fill="#3099B8" transform="translate(370,101)"/>
<path d="M0 0 C-0.928125 0.433125 -1.85625 0.86625 -2.8125 1.3125 C-5.47184073 2.72038627 -7.08105905 3.76123556 -9 6 C-9 4.35 -9 2.7 -9 1 C-2.25 -1.125 -2.25 -1.125 0 0 Z " fill="#E1F7FC" transform="translate(206,294)"/>
<path d="M0 0 C0.33 0.66 0.66 1.32 1 2 C0.0625 4.625 0.0625 4.625 -1 7 C-1.33 6.34 -1.66 5.68 -2 5 C-2.99 4.67 -3.98 4.34 -5 4 C-5 3.34 -5 2.68 -5 2 C-3.35 1.34 -1.7 0.68 0 0 Z " fill="#0B3856" transform="translate(218,288)"/>
<path d="M0 0 C0.33 0 0.66 0 1 0 C0.38461538 6.52307692 0.38461538 6.52307692 -1.5625 8.9375 C-2.036875 9.288125 -2.51125 9.63875 -3 10 C-2.49287967 6.28111761 -1.88391785 3.26545761 0 0 Z " fill="#3091BA" transform="translate(356,125)"/>
<path d="M0 0 C-3.08888522 2.05925681 -3.70935927 2.2390374 -7.1875 2.125 C-9.0746875 2.063125 -9.0746875 2.063125 -11 2 C-7.00042393 -0.06874624 -4.43559483 -1.37656391 0 0 Z " fill="#074A6C" transform="translate(169,307)"/>
<path d="M0 0 C1.32 0.66 2.64 1.32 4 2 C4 2.66 4 3.32 4 4 C2.35 4.33 0.7 4.66 -1 5 C-0.67 3.35 -0.34 1.7 0 0 Z " fill="#0B3652" transform="translate(141,288)"/>
<path d="M0 0 C0 3 0 3 -1.5 4.6875 C-1.995 5.120625 -2.49 5.55375 -3 6 C-3 5.34 -3 4.68 -3 4 C-3.66 4 -4.32 4 -5 4 C-4.67 3.01 -4.34 2.02 -4 1 C-1.9375 0.3125 -1.9375 0.3125 0 0 Z " fill="#083C58" transform="translate(233,282)"/>
<path d="M0 0 C2.64 0 5.28 0 8 0 C4.93882432 2.62386487 4.26826873 3 0 3 C0 2.01 0 1.02 0 0 Z " fill="#E5FBFE" transform="translate(169,280)"/>
<path d="M0 0 C0 0.66 0 1.32 0 2 C-0.66 2 -1.32 2 -2 2 C-2 2.66 -2 3.32 -2 4 C-4.31 4 -6.62 4 -9 4 C-6.43425105 1.43425105 -3.68548192 0 0 0 Z " fill="#DAF4FA" transform="translate(271,265)"/>
<path d="M0 0 C-1 1 -1 1 -3.06640625 1.09765625 C-3.89011719 1.08605469 -4.71382812 1.07445312 -5.5625 1.0625 C-6.38878906 1.05347656 -7.21507812 1.04445313 -8.06640625 1.03515625 C-8.70449219 1.02355469 -9.34257812 1.01195312 -10 1 C-4.25 -2.83333333 -4.25 -2.83333333 0 0 Z " fill="#389CBD" transform="translate(140,296)"/>
<path d="M0 0 C1.32 0.66 2.64 1.32 4 2 C-0.95 3.485 -0.95 3.485 -6 5 C-6 4.34 -6 3.68 -6 3 C-3.25 1.375 -3.25 1.375 0 0 Z " fill="#044261" transform="translate(186,274)"/>
<path d="M0 0 C-0.33 2.64 -0.66 5.28 -1 8 C-1.33 6.68 -1.66 5.36 -2 4 C-3.32 3.67 -4.64 3.34 -6 3 C-2.25 0 -2.25 0 0 0 Z " fill="#293946" transform="translate(324,246)"/>
<path d="M0 0 C0.66 0.33 1.32 0.66 2 1 C-0.57404971 4.86107457 -2.61020259 4.94319692 -7 6 C-2.25 1.125 -2.25 1.125 0 0 Z " fill="#3690AC" transform="translate(276,232)"/>
<path d="M0 0 C0.66 0 1.32 0 2 0 C1.64950425 3.24208567 1.43778819 4.61527704 -1.0625 6.8125 C-1.701875 7.204375 -2.34125 7.59625 -3 8 C-2.67 6.68 -2.34 5.36 -2 4 C-1.34 4 -0.68 4 0 4 C0 2.68 0 1.36 0 0 Z " fill="#3090B6" transform="translate(338,209)"/>
</svg>
