<?xml version="1.0" encoding="UTF-8"?>
<svg version="1.1" xmlns="http://www.w3.org/2000/svg" width="50" height="50">
<path d="M0 0 C3.01747434 0.49834876 4.85258619 1.33446968 7.15234375 3.35546875 C9.3208606 7.47197531 9.23950491 10.59257324 8.77734375 15.16796875 C8.61105469 16.91013672 8.61105469 16.91013672 8.44140625 18.6875 C8.34601562 19.56792969 8.250625 20.44835937 8.15234375 21.35546875 C7.49234375 21.35546875 6.83234375 21.35546875 6.15234375 21.35546875 C5.82234375 23.99546875 5.49234375 26.63546875 5.15234375 29.35546875 C6.29123047 29.88333984 6.29123047 29.88333984 7.453125 30.421875 C16.58231919 34.9568703 16.58231919 34.9568703 18.33984375 39.16796875 C19.15234375 42.35546875 19.15234375 42.35546875 19.15234375 43.35546875 C5.29234375 43.35546875 -8.56765625 43.35546875 -22.84765625 43.35546875 C-20.84765625 36.35546875 -20.84765625 36.35546875 -18.09765625 34.10546875 C-15.04032475 32.45921333 -11.98287272 30.84842897 -8.84765625 29.35546875 C-9.29887696 27.2497721 -9.72440478 25.55581188 -10.859375 23.7109375 C-12.27801696 20.32974736 -12.25554924 17.02673484 -12.28515625 13.41796875 C-12.31802734 12.71478516 -12.35089844 12.01160156 -12.38476562 11.28710938 C-12.42519131 7.36581748 -11.98539597 5.53776427 -9.6015625 2.3828125 C-6.04440518 -0.23586076 -4.25039063 -0.2616713 0 0 Z M-7.5546875 4.46875 C-9.44389926 7.2255152 -9.24537686 9.42083333 -9.22265625 12.73046875 C-9.23039062 13.85195313 -9.238125 14.9734375 -9.24609375 16.12890625 C-8.8116452 19.64708764 -7.83089259 21.46304094 -5.84765625 24.35546875 C-5.14943008 26.00916232 -4.4726702 27.67273889 -3.84765625 29.35546875 C-1.4184576 29.48987653 -1.4184576 29.48987653 1.15234375 28.35546875 C3.42695434 24.41403826 4.44772505 19.81805388 5.15234375 15.35546875 C5.37921875 14.34484375 5.60609375 13.33421875 5.83984375 12.29296875 C6.17391651 9.15268484 5.85021807 7.95221771 4.15234375 5.35546875 C3.16234375 5.35546875 2.17234375 5.35546875 1.15234375 5.35546875 C1.15234375 4.69546875 1.15234375 4.03546875 1.15234375 3.35546875 C-3.41781936 2.91916392 -3.41781936 2.91916392 -7.5546875 4.46875 Z M-5.84765625 31.35546875 C-6.17765625 32.01546875 -6.50765625 32.67546875 -6.84765625 33.35546875 C-6.18765625 33.35546875 -5.52765625 33.35546875 -4.84765625 33.35546875 C-5.17765625 32.69546875 -5.50765625 32.03546875 -5.84765625 31.35546875 Z M1.15234375 31.35546875 C1.15234375 32.01546875 1.15234375 32.67546875 1.15234375 33.35546875 C1.81234375 33.02546875 2.47234375 32.69546875 3.15234375 32.35546875 C2.49234375 32.02546875 1.83234375 31.69546875 1.15234375 31.35546875 Z M5.15234375 34.35546875 C4.82234375 35.01546875 4.49234375 35.67546875 4.15234375 36.35546875 C2.08984375 37.48046875 2.08984375 37.48046875 0.15234375 38.35546875 C0.48234375 39.34546875 0.81234375 40.33546875 1.15234375 41.35546875 C5.77234375 41.35546875 10.39234375 41.35546875 15.15234375 41.35546875 C12.88431878 36.81941882 11.67544873 36.24009583 7.15234375 34.35546875 C6.49234375 34.35546875 5.83234375 34.35546875 5.15234375 34.35546875 Z M-16.84765625 37.35546875 C-17.50765625 38.67546875 -18.16765625 39.99546875 -18.84765625 41.35546875 C-14.22765625 41.35546875 -9.60765625 41.35546875 -4.84765625 41.35546875 C-4.51765625 40.03546875 -4.18765625 38.71546875 -3.84765625 37.35546875 C-4.48703125 37.23171875 -5.12640625 37.10796875 -5.78515625 36.98046875 C-6.80609375 36.67109375 -6.80609375 36.67109375 -7.84765625 36.35546875 C-8.17765625 35.69546875 -8.50765625 35.03546875 -8.84765625 34.35546875 C-12.02849529 34.35546875 -14.13944028 35.7756761 -16.84765625 37.35546875 Z " fill="#000000" transform="translate(26.84765625,2.64453125)"/>
</svg>
