<?xml version="1.0" encoding="UTF-8"?>
<svg version="1.1" xmlns="http://www.w3.org/2000/svg" width="226" height="223">
<path d="M0 0 C74.58 0 149.16 0 226 0 C226 73.59 226 147.18 226 223 C151.42 223 76.84 223 0 223 C0 149.41 0 75.82 0 0 Z " fill="#333333" transform="translate(0,0)"/>
<path d="M0 0 C0 49.17 0 98.34 0 149 C-74.58 149 -149.16 149 -226 149 C-226 139.43 -226 129.86 -226 120 C-178.48 119.67 -130.96 119.34 -82 119 C-82.66 117.02 -83.32 115.04 -84 113 C-84.36760731 110.67182036 -84.70241581 108.3381615 -85 106 C-85.165 105.236875 -85.33 104.47375 -85.5 103.6875 C-86.12915747 100.30577858 -86.42517251 96.92315988 -86.74609375 93.5 C-86.96256306 91.36860991 -87.2547387 89.24513341 -87.5625 87.125 C-88 84 -88 84 -88 80 C-86.39318359 79.92652344 -86.39318359 79.92652344 -84.75390625 79.8515625 C-83.35674361 79.77654706 -81.9596095 79.7009987 -80.5625 79.625 C-79.85544922 79.5940625 -79.14839844 79.563125 -78.41992188 79.53125 C-76.60760812 79.42719371 -74.80182012 79.22080108 -73 79 C-72.67 78.34 -72.34 77.68 -72 77 C-76.95 77 -81.9 77 -87 77 C-87 76.67 -87 76.34 -87 76 C-85.85660156 76.01160156 -84.71320313 76.02320313 -83.53515625 76.03515625 C-82.04427246 76.04453288 -80.55338691 76.05363321 -79.0625 76.0625 C-77.93038086 76.07506836 -77.93038086 76.07506836 -76.77539062 76.08789062 C-74.85005687 76.09652441 -72.92464419 76.05224333 -71 76 C-70.67 75.67 -70.34 75.34 -70 75 C-75.61 75 -81.22 75 -87 75 C-87 74.67 -87 74.34 -87 74 C-86.42967041 74.00523682 -85.85934082 74.01047363 -85.27172852 74.01586914 C-82.70199677 74.03658221 -80.13228253 74.0496419 -77.5625 74.0625 C-76.66466797 74.07087891 -75.76683594 74.07925781 -74.84179688 74.08789062 C-73.56079102 74.09272461 -73.56079102 74.09272461 -72.25390625 74.09765625 C-71.46314697 74.10289307 -70.6723877 74.10812988 -69.85766602 74.11352539 C-67.98407311 74.20495909 -67.98407311 74.20495909 -67 73 C-73.6 73 -80.2 73 -87 73 C-85 66 -85 66 -83.3125 63.0625 C-81.29585192 58.35698782 -82.42877369 54.50589058 -83.53515625 49.65234375 C-84.86116264 42.08630727 -84.60427946 34.23410962 -82 27 C-81.67 25.845 -81.34 24.69 -81 23.5 C-80.67 22.345 -80.34 21.19 -80 20 C-79.690625 18.845 -79.38125 17.69 -79.0625 16.5 C-68.79247749 -17.33066239 -37.60035029 0 0 0 Z " fill="#5B5B5B" transform="translate(226,74)"/>
</svg>
